<svg xmlns="http://www.w3.org/2000/svg" width="718.146" height="466.469" viewBox="0 0 718.146 466.469">
  <defs>
    <style>
      .cls-1 {
        fill: #f5f5f5;
      }

      .cls-2 {
        fill: #263238;
      }

      .cls-3 {
        fill: #407bff;
      }

      .cls-4 {
        fill: #455a64;
      }

      .cls-5 {
        fill: #fafafa;
      }

      .cls-6 {
        fill: #fff;
      }

      .cls-7 {
        fill: #ebebeb;
      }

      .cls-8 {
        fill: #e0e0e0;
      }

      .cls-9 {
        fill: #ffd6bd;
      }

      .cls-10 {
        fill: #ffb394;
      }

      .cls-11 {
        fill: #ffbe9d;
      }

      .cls-12 {
        fill: #eb996e;
      }

      .cls-13 {
        fill: #936760;
      }

      .cls-14 {
        fill: #6f4c47;
      }
    </style>
  </defs>
  <g id="Group_video-pana" data-name="Group video-pana" transform="translate(-11 -12.561)">
    <g id="freepik--background-simple--inject-10">
      <path id="Path_1" data-name="Path 1" class="cls-1" d="M703.53,267.45l-2-1.89c-16.85-15.93-41-21.69-62.71-14.21a59.119,59.119,0,0,0-8.15,3.49c-18.92,9.83-32.23,29.84-34.13,51.3-1.12,12.62,1.31,26.13-4.28,37.44-7.28,14.73-25.06,20-40.92,23.84s-33.63,9.17-40.84,23.92c-4.52,9.24-3.7,20.39-.44,30.21,8.65,26,33.51,44.51,60.09,49.81s54.4-1.21,78.55-13.4c33.85-17.07,62.47-46.26,74.53-82.53S729,296,703.53,267.45Z"/>
      <path id="Path_2" data-name="Path 2" class="cls-1" d="M51.24,202.92,53,205.05C67.66,223,90.86,231.8,113.36,227.17a58.779,58.779,0,0,0,8.53-2.42c20-7.32,35.79-25.46,40.42-46.51,2.72-12.37,2-26.08,9-36.59C180.45,128,198.76,125,215,123.25s34.53-4.79,43.58-18.5c5.66-8.58,6.27-19.75,4.29-29.9C257.59,48,235.31,26.42,209.62,17.76S155.52,12,130,21C94.25,33.59,62.13,58.88,45.53,93.3S29.63,171.33,51.24,202.92Z"/>
      <circle id="Ellipse_1" data-name="Ellipse 1" class="cls-1" cx="73.69" cy="73.69" r="73.69" transform="translate(560.95 40.19)"/>
    </g>
    <g id="freepik--Floor--inject-10">
      <path id="Path_3" data-name="Path 3" class="cls-2" d="M714.69,478.77c0,.14-152.1.26-339.67.26s-339.71-.12-339.71-.26,152.06-.26,339.71-.26S714.69,478.62,714.69,478.77Z"/>
    </g>
    <g id="freepik--Plant--inject-10">
      <path id="Path_4" data-name="Path 4" class="cls-3" d="M118.29,317.83c-20.27-20.74-52-29.46-80.05-22,24.34,16.32,51.69,25.07,81,25.31"/>
      <path id="Path_5" data-name="Path 5" class="cls-3" d="M91.14,221.68c3.33-23.59-5.83-50.13-23.5-67.27-.58,23.38,9.29,49.69,23.5,67.27"/>
      <path id="Path_6" data-name="Path 6" class="cls-3" d="M105.26,266.24A126,126,0,0,0,47.41,211c7.37,27.16,30.6,49.38,58.07,55.54"/>
      <path id="Path_7" data-name="Path 7" class="cls-3" d="M108.19,274.84c-14.25.4-28.67-.1-42.45-3.75s-27-10.65-36.15-21.56A141.79,141.79,0,0,1,108,273.46"/>
      <path id="Path_8" data-name="Path 8" class="cls-3" d="M101,246.52c7.24-27.11,19.17-45.86,40.47-61.05A56.38,56.38,0,0,1,101,246.52"/>
      <path id="Path_9" data-name="Path 9" class="cls-3" d="M154.74,293.27c.37-15.75-9.78-31.23-24.38-37.17,1.19,14,12.18,30.19,24.38,37.17"/>
      <path id="Path_10" data-name="Path 10" class="cls-3" d="M161.55,270.41c1.61-22.64,17.7-43.59,39.16-51-4.92,22.66-18,41.51-39.16,51"/>
      <path id="Path_11" data-name="Path 11" class="cls-3" d="M151.29,311c5-7.19,13.22-11.66,21.7-13.88s17.35-2.41,26.12-2.6A61,61,0,0,1,152,314.13"/>
      <path id="Path_12" data-name="Path 12" class="cls-3" d="M141.1,368.75a66.89,66.89,0,0,1,81.7,38.7c-29.68-5.63-59-18.81-81.7-38.7"/>
      <path id="Path_13" data-name="Path 13" class="cls-3" d="M108.53,348.67c4.93,14.57,4,32.18-7,44.74a53.44,53.44,0,0,1,7-44.74"/>
      <path id="Path_14" data-name="Path 14" class="cls-3" d="M89.28,340.57A54.82,54.82,0,0,1,59,385.06a3.42,3.42,0,0,1-2.67.44c-1.33-.5-1.46-2.37-1.33-3.8C57.18,363,71,345,89.28,340.57"/>
      <path id="Path_15" data-name="Path 15" class="cls-3" d="M76.71,338.68A45.53,45.53,0,0,1,43.94,353.1,45.56,45.56,0,0,1,11,339c20.88-2.29,45-3.81,65.68-.34"/>
      <path id="Path_16" data-name="Path 16" class="cls-2" d="M73.58,171.79a5.11,5.11,0,0,0,.19.61l.64,1.77,2.52,6.76c1.12,2.92,2.42,6.53,3.92,10.72.76,2.09,1.56,4.33,2.42,6.7s1.69,4.91,2.61,7.55c3.69,10.57,7.8,23.26,12.23,37.39s8.93,29.77,13.43,46.26,8.37,32.3,11.72,46.73,6,27.48,8.07,38.5q.78,4.13,1.48,7.85l1.19,7c.76,4.38,1.41,8.16,1.84,11.26s.84,5.46,1.1,7.13c.13.79.23,1.4.3,1.85a4,4,0,0,0,.13.63,2.811,2.811,0,0,0-.05-.64c0-.45-.13-1.07-.22-1.86-.23-1.68-.54-4.08-.95-7.15s-1-6.9-1.71-11.29q-.52-3.3-1.13-7l-1.43-7.86c-1.95-11-4.69-24.1-7.91-38.57s-7.22-30.26-11.66-46.77-9.1-32.12-13.49-46.27-8.64-26.8-12.41-37.35l-2.66-7.54-2.48-6.69c-1.54-4.17-2.88-7.76-4-10.67l-2.66-6.71c-.3-.73-.54-1.31-.71-1.74A2.79,2.79,0,0,0,73.58,171.79Z"/>
      <path id="Path_17" data-name="Path 17" class="cls-2" d="M188.25,231.51a2,2,0,0,0-.36.34l-1,1.05c-.87.92-2.13,2.31-3.71,4.15a145.212,145.212,0,0,0-12.29,16.39A110,110,0,0,0,158,280.93c-3.45,10.95-5.58,23.39-7.71,36.39-4.25,26-9.45,49.35-13.22,66.21-1.91,8.39-3.45,15.2-4.53,20-.51,2.32-.91,4.14-1.2,5.44-.12.59-.22,1.05-.29,1.41a2.36,2.36,0,0,0-.08.49,3.427,3.427,0,0,0,.16-.47c.09-.32.21-.82.37-1.4l1.35-5.4c1.13-4.75,2.76-11.54,4.77-19.9,3.91-16.84,9.21-40.15,13.46-66.21,2.12-13,4.23-25.4,7.62-36.3a111.161,111.161,0,0,1,12.63-27.41,158.177,158.177,0,0,1,12-16.49c1.67-1.9,2.85-3.29,3.67-4.29l.94-1.1A2.181,2.181,0,0,0,188.25,231.51Z"/>
      <path id="Path_18" data-name="Path 18" class="cls-2" d="M70.47,337.79a2.492,2.492,0,0,0,.75.14l2.17.24,1.56.15,1.84.28c1.33.2,2.84.39,4.48.76l2.6.51,2.77.71c1.93.43,3.93,1.14,6.06,1.78a89.157,89.157,0,0,1,13.22,5.83,74.383,74.383,0,0,1,11.85,8.23,59.861,59.861,0,0,1,4.55,4.36,47.273,47.273,0,0,1,3.59,4.16,41.056,41.056,0,0,1,2.67,3.67,27.467,27.467,0,0,1,1.82,2.9l1.11,1.87a2.67,2.67,0,0,0,.44.63,3.12,3.12,0,0,0-.3-.7c-.26-.53-.59-1.18-1-1.95a23.39,23.39,0,0,0-1.72-3,41.65,41.65,0,0,0-2.59-3.77,44.139,44.139,0,0,0-3.56-4.26,60.528,60.528,0,0,0-4.55-4.47,72.373,72.373,0,0,0-12-8.37,85.137,85.137,0,0,0-13.37-5.83c-2.15-.63-4.17-1.31-6.13-1.73l-2.8-.66-2.62-.47c-1.67-.33-3.19-.49-4.53-.64L75,338l-1.58-.09-2.18-.09A3.4,3.4,0,0,0,70.47,337.79Z"/>
      <path id="Path_19" data-name="Path 19" class="cls-2" d="M64.53,232a10.669,10.669,0,0,0,1.5,1.45l4.3,3.72c3.65,3.12,8.73,7.39,14.37,12.07s10.78,8.88,14.52,11.89l4.46,3.53a10.82,10.82,0,0,0,1.7,1.21,9.848,9.848,0,0,0-1.51-1.45l-4.29-3.73c-3.66-3.12-8.73-7.39-14.37-12.06s-10.77-8.88-14.52-11.89l-4.46-3.53A10.82,10.82,0,0,0,64.53,232Z"/>
      <path id="Path_20" data-name="Path 20" class="cls-2" d="M59.39,259.62c-.06.21,10.9,3.64,24.48,7.65s24.65,7.1,24.71,6.88-10.89-3.63-24.48-7.64S59.46,259.41,59.39,259.62Z"/>
      <path id="Path_21" data-name="Path 21" class="cls-2" d="M99.87,248.63a8.86,8.86,0,0,0,1.13-1.58l2.89-4.4c2.45-3.71,5.93-8.76,10-14.15s8.09-10.07,11-13.42q2.07-2.37,3.47-4a8.669,8.669,0,0,0,1.21-1.52,9.151,9.151,0,0,0-1.44,1.3c-.89.87-2.14,2.17-3.66,3.8-3,3.26-7.08,7.91-11.22,13.32s-7.55,10.53-9.89,14.33c-1.16,1.89-2.08,3.45-2.68,4.54a8.6,8.6,0,0,0-.81,1.78Z"/>
      <path id="Path_22" data-name="Path 22" class="cls-2" d="M137.93,264a36.909,36.909,0,0,0,2.58,4.23c1.63,2.58,3.86,6.16,6.16,10.2s4.24,7.78,5.61,10.51a36.318,36.318,0,0,0,2.33,4.37,27.558,27.558,0,0,0-1.82-4.62c-1.25-2.79-3.12-6.59-5.43-10.66s-4.62-7.61-6.38-10.11A27.091,27.091,0,0,0,137.93,264Z"/>
      <path id="Path_23" data-name="Path 23" class="cls-2" d="M151,311.73c.06.1,2.15-.92,5.57-2.46s8.2-3.55,13.6-5.45,10.4-3.29,14-4.22,5.91-1.44,5.89-1.56a6.89,6.89,0,0,0-1.64.17c-1,.16-2.54.44-4.38.84a122.6,122.6,0,0,0-27.74,9.71c-1.69.84-3,1.55-3.95,2.08A6.1,6.1,0,0,0,151,311.73Z"/>
      <path id="Path_24" data-name="Path 24" class="cls-2" d="M140.71,368.84a2.589,2.589,0,0,0,.67.22l2,.51,7.3,1.68a241.716,241.716,0,0,1,23.81,6.28A106.112,106.112,0,0,1,196.67,388c2.66,1.69,4.73,3.19,6.12,4.26a20.568,20.568,0,0,0,2.21,1.63,4.185,4.185,0,0,0-.49-.51c-.34-.31-.84-.8-1.52-1.36a64.523,64.523,0,0,0-6-4.49,97.66,97.66,0,0,0-22.26-10.72,198.5,198.5,0,0,0-24-6.08l-7.34-1.44A17.407,17.407,0,0,0,140.71,368.84Z"/>
      <path id="Path_25" data-name="Path 25" class="cls-2" d="M103.63,382.91c.22,0,1.52-7.65,2.91-17.17s2.35-17.25,2.13-17.29-1.52,7.66-2.92,17.18S103.41,382.88,103.63,382.91Z"/>
      <path id="Path_26" data-name="Path 26" class="cls-2" d="M65,368.9a41.794,41.794,0,0,0,3.47-4.14c2.09-2.59,5-6.17,8.25-10.06s6.3-7.35,8.5-9.86a43.71,43.71,0,0,0,3.47-4.13,9.848,9.848,0,0,0-1.11.94c-.67.64-1.63,1.61-2.78,2.81-2.31,2.41-5.41,5.83-8.69,9.73s-6.11,7.54-8.08,10.23c-1,1.34-1.77,2.45-2.29,3.22A4.749,4.749,0,0,0,65,368.9Z"/>
      <path id="Path_27" data-name="Path 27" class="cls-4" d="M167.18,404.7v19.07h-4.77l-16.95,53.52h-37.6L91.44,424.3l-6.36-.53V404.7Z"/>
      <path id="Path_28" data-name="Path 28" class="cls-2" d="M88.26,424.3c0,.22,16.6.4,37.07.4s37.08-.18,37.08-.4-16.59-.4-37.08-.4S88.26,424.08,88.26,424.3Z"/>
      <path id="Path_29" data-name="Path 29" class="cls-2" d="M61.22,301.61a15.166,15.166,0,0,0,2.4.65l6.6,1.59c5.57,1.38,13.2,3.47,21.49,6.25s15.63,5.74,20.9,8l6.22,2.72a14.272,14.272,0,0,0,2.31.93,15.872,15.872,0,0,0-2.18-1.21c-1.42-.75-3.51-1.76-6.12-3A218.21,218.21,0,0,0,70.35,303.3c-2.8-.62-5.08-1.07-6.66-1.34a15,15,0,0,0-2.47-.35Z"/>
      <path id="Path_30" data-name="Path 30" class="cls-5" d="M100.74,454c0,.22,11.65.4,26,.4s26-.18,26-.4-11.65-.4-26-.4S100.74,453.8,100.74,454Z"/>
      <path id="Path_31" data-name="Path 31" class="cls-5" d="M99.28,449.59c0,.22,12.34.4,27.56.4s27.57-.18,27.57-.4-12.34-.39-27.57-.39S99.28,449.37,99.28,449.59Z"/>
    </g>
    <g id="freepik--Device--inject-10">
      <path id="Path_32" data-name="Path 32" class="cls-2" d="M627.37,55.15H147.79a15,15,0,0,0-15,15V408.86a15,15,0,0,0,15,15H331.85s11.71,36.2-24.58,54.94h172.1s-41-14-30.44-54.94H627.37a15,15,0,0,0,15-15V70.12a15,15,0,0,0-15-14.97Z"/>
      <path id="Path_33" data-name="Path 33" class="cls-4" d="M394,388.2c6.53,9.33-3.68,19.54-13,13a3.622,3.622,0,0,1-.8-.81c-6.5-9.32,3.69-19.52,13-13a3.38,3.38,0,0,1,.8.81Z"/>
      <path id="Path_34" data-name="Path 34" class="cls-6" d="M150.78,61.36H624.39a9.7,9.7,0,0,1,9.7,9.7v290.8h-493V71.06A9.7,9.7,0,0,1,150.78,61.36Z"/>
      <path id="Path_35" data-name="Path 35" class="cls-7" d="M150.23,61.36H626.57a7.52,7.52,0,0,1,7.52,7.52V86.33h-493V70.51a9.15,9.15,0,0,1,9.15-9.15Z"/>
      <path id="Path_36" data-name="Path 36" class="cls-2" d="M160.24,74.37a3.46,3.46,0,1,1-3.46-3.46,3.46,3.46,0,0,1,3.46,3.46Z"/>
      <path id="Path_37" data-name="Path 37" class="cls-2" d="M170.57,74.37a3.47,3.47,0,1,1-3.46-3.46,3.47,3.47,0,0,1,3.46,3.46Z"/>
      <path id="Path_38" data-name="Path 38" class="cls-2" d="M180.39,74.37a3.46,3.46,0,1,1-1.017-2.45,3.47,3.47,0,0,1,1.017,2.45Z"/>
      <path id="Path_39" data-name="Path 39" class="cls-4" d="M541.63,423.88c0,.16-68.24.28-152.41.28S236.8,424,236.8,423.88s68.23-.29,152.42-.29S541.63,423.72,541.63,423.88Z"/>
      <path id="Path_40" data-name="Path 40" class="cls-8" d="M485.19,243.74h-.14l-.4-.16-1.53-.64-5.59-2.39-18.38-8-.64-.28h.13l-18,7.71-5.45,2.29-1.48.6a3,3,0,0,1-.53.19l.5-.25,1.46-.66,5.41-2.39,18-7.79h.14l.63.28,18.35,8.09,5.54,2.49,1.5.7.39.18C485.15,243.71,485.19,243.73,485.19,243.74Z"/>
      <rect id="Rectangle_1" data-name="Rectangle 1" class="cls-8" width="118.07" height="88.4" transform="translate(395.8 241.1)"/>
      <rect id="Rectangle_2" data-name="Rectangle 2" class="cls-5" width="110.25" height="80.66" transform="translate(399.92 245.21)"/>
      <path id="Path_41" data-name="Path 41" class="cls-8" d="M424.28,280.45s.11,13.54.8,17.67l17-.8s-1.49-13.31-.92-16.87Z"/>
      <path id="Path_42" data-name="Path 42" class="cls-6" d="M432.64,282.36h.25a3.831,3.831,0,0,1,.7,0,3.49,3.49,0,0,1,2.26,1.25,3.64,3.64,0,0,1,.63,3.73,6.13,6.13,0,0,1-.47,1.05,10.558,10.558,0,0,0-.55,1.06,9,9,0,0,0-.68,2.41v.05h0L433,292h-1.82v-.06a4.93,4.93,0,0,0-.81-2.32c-.2-.35-.43-.68-.64-1a9.652,9.652,0,0,1-.59-1,3.23,3.23,0,0,1-.27-2.07,4.339,4.339,0,0,1,.66-1.69,3.31,3.31,0,0,1,1.1-1,4.32,4.32,0,0,1,1.74-.51h0a6.32,6.32,0,0,0-.68.13,4.559,4.559,0,0,0-1,.42,3.17,3.17,0,0,0-1.06,1,4.17,4.17,0,0,0-.63,1.66,3.14,3.14,0,0,0,.27,2,9.941,9.941,0,0,0,.59,1c.21.32.44.65.64,1a5.11,5.11,0,0,1,.84,2.39l-.06-.07h3.43l-.06.06a9.528,9.528,0,0,1,.7-2.45,10.733,10.733,0,0,1,.55-1.07,5.624,5.624,0,0,0,.48-1,3.8,3.8,0,0,0,.18-2,3.87,3.87,0,0,0-.78-1.6,3.53,3.53,0,0,0-1.14-.92,3.84,3.84,0,0,0-1.05-.34,5.928,5.928,0,0,0-.7-.06h-.25Z"/>
      <path id="Path_43" data-name="Path 43" class="cls-6" d="M433.51,291.8a.28.28,0,0,0,0-.06v-.15c0-.14-.06-.35-.1-.61-.07-.53-.19-1.29-.26-2.24a3.887,3.887,0,0,0-.05-.75,4.383,4.383,0,0,1,0-.81,2.371,2.371,0,0,1,.19-.85,1.33,1.33,0,0,1,.65-.65.85.85,0,0,1,.92.18.63.63,0,0,1,.2.46.85.85,0,0,1-.17.49,1.2,1.2,0,0,1-.41.33,2.179,2.179,0,0,1-.51.17,6.15,6.15,0,0,1-1.07.12,6.509,6.509,0,0,1-1.08-.05,1.86,1.86,0,0,1-.51-.15,1.15,1.15,0,0,1-.42-.3,1,1,0,0,1-.25-.46.779.779,0,0,1,.06-.5.68.68,0,0,1,.35-.34.6.6,0,0,1,.49,0,.9.9,0,0,1,.36.31,1.22,1.22,0,0,1,.18.42,4.3,4.3,0,0,1,.08.86,12.613,12.613,0,0,0,.09,1.56c0,.95.08,1.72.11,2.25v0c0-.53-.08-1.3-.13-2.25,0-.47-.06-1-.09-1.55a5.127,5.127,0,0,0-.09-.86,1.05,1.05,0,0,0-.17-.41,1,1,0,0,0-.34-.29.58.58,0,0,0-.45,0,.68.68,0,0,0-.33.32.76.76,0,0,0,0,.47.9.9,0,0,0,.23.43,1.54,1.54,0,0,0,.91.44,6.341,6.341,0,0,0,1.07.05,6.138,6.138,0,0,0,1.06-.12,2.27,2.27,0,0,0,.5-.17,1.07,1.07,0,0,0,.39-.31.76.76,0,0,0,.16-.46.6.6,0,0,0-.18-.42.81.81,0,0,0-.87-.17,1.27,1.27,0,0,0-.63.62,2.5,2.5,0,0,0-.19.83v1.56c.07.95.17,1.71.24,2.24l.09.6v.16Z"/>
      <path id="Path_44" data-name="Path 44" class="cls-6" d="M431.28,291.89a5.493,5.493,0,0,1,0,.56c0,.41.05.9.08,1.47h0l1.15,1.31h-.06l1.32-.08h-.06l.66-.8.33-.4V294c0-.78,0-1.51-.05-2.18l.08.07h-2.54l2.51-.1h.07v.07c0,.67,0,1.4.07,2.17h0l-.33.4-.66.8h0l-1.33.06h0L431.29,294h0v-1.51A4.141,4.141,0,0,1,431.28,291.89Z"/>
      <path id="Path_45" data-name="Path 45" class="cls-6" d="M434.69,293.8l-.13-.05a2.537,2.537,0,0,0-.34-.14,3.31,3.31,0,0,0-1.19-.18,3.24,3.24,0,0,0-1.18.25c-.15.06-.26.12-.34.16l-.12.06.11-.08a2.44,2.44,0,0,1,.33-.17,3.12,3.12,0,0,1,1.19-.27,2.94,2.94,0,0,1,1.21.2,2.365,2.365,0,0,1,.34.15Z"/>
      <path id="Path_46" data-name="Path 46" class="cls-6" d="M434.69,293.27h-.13a2.537,2.537,0,0,0-.34-.14,3.551,3.551,0,0,0-1.19-.18,3.24,3.24,0,0,0-1.18.25c-.15.06-.26.12-.34.16l-.12.06.11-.08c.08,0,.19-.11.33-.17a3.121,3.121,0,0,1,1.19-.27,2.94,2.94,0,0,1,1.21.2,2.371,2.371,0,0,1,.34.15Z"/>
      <path id="Path_47" data-name="Path 47" class="cls-6" d="M434.66,292.77l-.13-.06-.34-.13a3.4,3.4,0,0,0-2.38.07l-.33.16-.12.06.11-.08a2,2,0,0,1,.33-.17,3.12,3.12,0,0,1,2.4-.08,2.229,2.229,0,0,1,.34.16Z"/>
      <path id="Path_48" data-name="Path 48" class="cls-7" d="M405.36,258.31s.12,13.54.81,17.68l17-.81s-1.49-13.31-.92-16.87Z"/>
      <path id="Path_49" data-name="Path 49" class="cls-6" d="M419.67,264a98.722,98.722,0,0,1-11.39.69,49.38,49.38,0,0,1,5.68-.51,49.93,49.93,0,0,1,5.71-.18Z"/>
      <path id="Path_50" data-name="Path 50" class="cls-6" d="M419.68,266.87a98.723,98.723,0,0,1-11.4.69,46.872,46.872,0,0,1,5.69-.51,49.894,49.894,0,0,1,5.71-.18Z"/>
      <path id="Path_51" data-name="Path 51" class="cls-6" d="M416.79,269.69a16.49,16.49,0,0,1-3.24.36,16.87,16.87,0,0,1-3.25,0,15,15,0,0,1,3.23-.37,15.611,15.611,0,0,1,3.26.01Z"/>
      <path id="Path_52" data-name="Path 52" class="cls-7" d="M404.56,298.15s.11,13.54.8,17.67l17-.8s-1.49-13.31-.91-16.87Z"/>
      <path id="Path_53" data-name="Path 53" class="cls-6" d="M418.87,303.84a49.726,49.726,0,0,1-5.69.51,48.444,48.444,0,0,1-5.71.17,49.734,49.734,0,0,1,5.69-.51A51.186,51.186,0,0,1,418.87,303.84Z"/>
      <path id="Path_54" data-name="Path 54" class="cls-6" d="M418.87,306.71a48.236,48.236,0,0,1-5.69.5,49.754,49.754,0,0,1-5.7.18,49.388,49.388,0,0,1,5.68-.51,46,46,0,0,1,5.71-.17Z"/>
      <path id="Path_55" data-name="Path 55" class="cls-6" d="M416,309.52a15.747,15.747,0,0,1-3.24.36,16.1,16.1,0,0,1-3.26,0,16.62,16.62,0,0,1,3.24-.36A16.1,16.1,0,0,1,416,309.52Z"/>
      <path id="Path_56" data-name="Path 56" class="cls-7" d="M450.97,261.9l1.68,39.06,48.75.59-2.18-39.13Z"/>
      <rect id="Rectangle_3" data-name="Rectangle 3" class="cls-1" width="48.43" height="36.57" transform="translate(450.4 261.62)"/>
      <path id="Path_57" data-name="Path 57" class="cls-8" d="M498.83,298.19V288.16c0-6.37,0-15.5-.07-26.54l.13.14H450.47l.17-.17v36.57l-.15-.15,34.94.08h.06l-35,.07h-.15V261.28H499v.13c0,11.08-.05,20.23-.07,26.63v9.29A4.224,4.224,0,0,1,498.83,298.19Z"/>
      <rect id="Rectangle_4" data-name="Rectangle 4" class="cls-1" width="19.63" height="24.71" transform="translate(456.25 269.37)"/>
      <path id="Path_58" data-name="Path 58" class="cls-8" d="M475.88,294.08a.889.889,0,0,1,0-.13v-6.77c0-4.35,0-10.5-.07-17.81l.15.15H456.33s.31-.32.16-.17h0v24.69l-.14-.14,14.21.07h.14l-14.3.08h-.14V269.22h0l.17-.17H476v.15c0,7.35-.06,13.54-.08,17.91V294a.858.858,0,0,0-.04.08Z"/>
      <rect id="Rectangle_5" data-name="Rectangle 5" class="cls-1" width="37.62" height="3.56" transform="translate(457 263.72)"/>
      <path id="Path_59" data-name="Path 59" class="cls-8" d="M494.62,267.28v-3.56l.06.06c-6.34.06-20.81.1-37.62.1h0c.33-.33.09-.09.17-.16h0v3.54l-.16-.17,26.67.07,8,.05h.08l-8,.05-26.79.07h-.17v-3.7h0l.17-.17h0c16.81,0,31.28,0,37.62.1h.07v3.41a.891.891,0,0,1-.1.31Z"/>
      <rect id="Rectangle_6" data-name="Rectangle 6" class="cls-1" width="16.34" height="14.89" transform="translate(478.28 269.37)"/>
      <path id="Path_60" data-name="Path 60" class="cls-8" d="M494.62,284.26v-4.09c0-2.62,0-6.32-.07-10.76l.14.14H478.35l.17-.17h0v14.89l-.15-.14,11.79.07h4.55a1.321,1.321,0,0,1-.28,0h-4.18l-11.88.08h-.14V269.25h0c-.15.15.2-.2.16-.17h16.49v.14c0,4.48-.05,8.21-.07,10.85V284a1.1,1.1,0,0,1-.19.26Z"/>
      <rect id="Rectangle_7" data-name="Rectangle 7" class="cls-1" width="16.34" height="7.48" transform="translate(478.28 286.6)"/>
      <path id="Path_61" data-name="Path 61" class="cls-8" d="M494.62,294.08v-2.05c0-1.32,0-3.17-.07-5.43l.12.12H478.33c-.15.15.2-.2.17-.16h0v7.47l-.16-.16L490,294l3.4.05h.92a1.252,1.252,0,0,1,.33,0H490.1l-11.79.08h-.16V286.5h0s.31-.32.16-.17h16.46v.13c0,2.29-.05,4.17-.06,5.51v1.47A2.9,2.9,0,0,1,494.62,294.08Z"/>
      <path id="Path_62" data-name="Path 62" class="cls-6" d="M475.39,269.41c-6.07,8.4-13.07,16.27-19.14,24.67"/>
      <path id="Path_63" data-name="Path 63" class="cls-8" d="M456.25,294.08s0-.1.16-.28l.51-.75c.45-.65,1.12-1.58,2-2.71,1.68-2.27,4.1-5.34,6.8-8.7s5.14-6.4,6.88-8.63l2.05-2.65.56-.71a1.761,1.761,0,0,1,.21-.24s0,.1-.16.28l-.51.75c-.45.65-1.12,1.58-2,2.71-1.68,2.27-4.1,5.34-6.8,8.7s-5.14,6.4-6.88,8.63L457,293.13l-.56.71a1.758,1.758,0,0,1-.19.24Z"/>
      <line id="Line_1" data-name="Line 1" class="cls-6" x2="19.63" y2="24.71" transform="translate(456.25 269.37)"/>
      <path id="Path_64" data-name="Path 64" class="cls-8" d="M475.88,294.08c-.07.05-4.53-5.43-9.95-12.25s-9.76-12.4-9.68-12.46,4.52,5.43,9.94,12.25S476,294,475.88,294.08Z"/>
      <circle id="Ellipse_2" data-name="Ellipse 2" class="cls-8" cx="3.07" cy="3.07" r="3.07" transform="translate(446.51 266.35)"/>
      <path id="Path_65" data-name="Path 65" class="cls-8" d="M502.88,262a3.07,3.07,0,1,1-3.07-3.07A3.07,3.07,0,0,1,502.88,262Z"/>
      <rect id="Rectangle_8" data-name="Rectangle 8" class="cls-1" width="31.3" height="62.05" transform="translate(157.91 292.64)"/>
      <rect id="Rectangle_9" data-name="Rectangle 9" class="cls-1" width="33.82" height="62.05" transform="translate(190.41 292.64)"/>
      <path id="Path_66" data-name="Path 66" class="cls-1" d="M228.57,291.56h35.62V236.52h1.2v55.04h28.99V235.3H228.57Z"/>
      <rect id="Rectangle_10" data-name="Rectangle 10" class="cls-1" width="28.99" height="62.05" transform="translate(265.39 292.64)"/>
      <path id="Path_67" data-name="Path 67" class="cls-1" d="M189.21,291.56V236.52h1.2v55.04h33.83V235.3H157.91v56.26Z"/>
      <rect id="Rectangle_11" data-name="Rectangle 11" class="cls-1" width="35.62" height="62.05" transform="translate(228.57 292.64)"/>
      <rect id="Rectangle_12" data-name="Rectangle 12" class="cls-1" width="31.3" height="62.05" transform="translate(299.39 292.64)"/>
      <rect id="Rectangle_13" data-name="Rectangle 13" class="cls-1" width="33.82" height="62.05" transform="translate(331.89 292.64)"/>
      <path id="Path_68" data-name="Path 68" class="cls-1" d="M330.69,291.56V236.52h1.2v55.04h33.82V235.3H299.39v56.26Z"/>
      <rect id="Rectangle_14" data-name="Rectangle 14" class="cls-8" width="5.07" height="25.24" transform="matrix(1, -0.005, 0.005, 1, 588.435, 103.655)"/>
      <rect id="Rectangle_15" data-name="Rectangle 15" class="cls-7" width="13.13" height="13.93" transform="translate(544.978 101.275) rotate(-0.573)"/>
      <rect id="Rectangle_16" data-name="Rectangle 16" class="cls-1" width="13.13" height="13.93" transform="matrix(1, -0.005, 0.005, 1, 557.565, 103.702)"/>
      <path id="Path_69" data-name="Path 69" class="cls-8" d="M544.5,107.65q13.1.1,26.21-.12a.14.14,0,0,0,0-.28c-8.72,0-17.47,0-26.2.16a.12.12,0,0,0,0,.24Z"/>
      <rect id="Rectangle_17" data-name="Rectangle 17" class="cls-7" width="23.86" height="11.35" transform="matrix(1, -0.005, 0.005, 1, 536.3, 117.537)"/>
      <rect id="Rectangle_18" data-name="Rectangle 18" class="cls-1" width="23.86" height="11.35" transform="matrix(1, -0.005, 0.005, 1, 560.049, 117.409)"/>
      <path id="Path_70" data-name="Path 70" class="cls-8" d="M536.31,120.72c15.85.18,31.76,0,47.61-.24a.14.14,0,1,0,0-.28c-15.86-.08-31.76-.07-47.61.28a.12.12,0,0,0,0,.24Z"/>
      <rect id="Rectangle_19" data-name="Rectangle 19" class="cls-8" width="92.45" height="4.07" transform="translate(527.38 128.91)"/>
      <rect id="Rectangle_20" data-name="Rectangle 20" class="cls-8" width="3.75" height="13.88" transform="translate(542.52 130.87)"/>
      <rect id="Rectangle_21" data-name="Rectangle 21" class="cls-8" width="3.75" height="13.88" transform="translate(598.55 130.87)"/>
      <rect id="Rectangle_22" data-name="Rectangle 22" class="cls-7" width="5.07" height="34.71" transform="matrix(1, -0.005, 0.005, 1, 593.374, 94.248)"/>
      <rect id="Rectangle_23" data-name="Rectangle 23" class="cls-1" width="7.88" height="28.13" transform="matrix(1, -0.005, 0.005, 1, 598.489, 100.741)"/>
      <path id="Path_71" data-name="Path 71" class="cls-8" d="M606.31,106.13a55.512,55.512,0,0,1-7.88,0,59.773,59.773,0,0,1,7.88,0Z"/>
      <path id="Path_72" data-name="Path 72" class="cls-8" d="M606.31,105a55.512,55.512,0,0,1-7.88,0,59.772,59.772,0,0,1,7.88,0Z"/>
      <path id="Path_73" data-name="Path 73" class="cls-8" d="M606.31,124.61a55.511,55.511,0,0,1-7.88,0,59.769,59.769,0,0,1,7.88,0Z"/>
      <path id="Path_74" data-name="Path 74" class="cls-8" d="M606.31,123.43a55.513,55.513,0,0,1-7.88,0,55.507,55.507,0,0,1,7.88,0Z"/>
      <path id="Path_75" data-name="Path 75" class="cls-8" d="M602.5,120.85c-.08,0-.14-2.84-.14-6.34s.06-6.33.14-6.33.13,2.83.13,6.33S602.57,120.85,602.5,120.85Z"/>
      <rect id="Rectangle_24" data-name="Rectangle 24" class="cls-7" width="8.58" height="21.23" transform="translate(606.4 107.62)"/>
      <path id="Path_76" data-name="Path 76" class="cls-8" d="M597.29,100.18a1.46,1.46,0,1,1-1.46-1.46,1.46,1.46,0,0,1,1.46,1.46Z"/>
      <rect id="Rectangle_25" data-name="Rectangle 25" class="cls-8" width="0.9" height="20.65" transform="translate(595.38 104.19)"/>
      <rect id="Rectangle_26" data-name="Rectangle 26" class="cls-5" width="65.1" height="58.24" transform="translate(161.31 114.05)"/>
      <path id="Path_77" data-name="Path 77" class="cls-8" d="M226.41,172.29V156.27c0-10.18,0-24.72-.08-42.22l.15.15h-65.1l.17-.17v58.24l-.15-.15,47.09.08h.05l-47.18.08h-.15V113.71h65.43v.15c0,17.54-.06,32.11-.08,42.31v14.88A5.132,5.132,0,0,1,226.41,172.29Z"/>
      <path id="Path_78" data-name="Path 78" class="cls-8" d="M186.27,124.4c0,.09-3.43.17-7.65.17s-7.66-.08-7.66-.17,3.43-.18,7.66-.18S186.27,124.3,186.27,124.4Z"/>
      <path id="Path_79" data-name="Path 79" class="cls-8" d="M213.86,128.77c0,.1-9.42.18-21,.18s-21-.08-21-.18,9.41-.17,21-.17S213.86,128.68,213.86,128.77Z"/>
      <rect id="Rectangle_27" data-name="Rectangle 27" class="cls-8" width="2.74" height="2.74" transform="translate(171.08 136.18)"/>
      <rect id="Rectangle_28" data-name="Rectangle 28" class="cls-8" width="2.74" height="2.74" transform="translate(177.83 136.18)"/>
      <rect id="Rectangle_29" data-name="Rectangle 29" class="cls-8" width="2.74" height="2.74" transform="translate(184.7 136.05)"/>
      <rect id="Rectangle_30" data-name="Rectangle 30" class="cls-8" width="2.74" height="2.74" transform="translate(191.33 136.18)"/>
      <rect id="Rectangle_31" data-name="Rectangle 31" class="cls-8" width="2.74" height="2.74" transform="translate(198.08 136.18)"/>
      <rect id="Rectangle_32" data-name="Rectangle 32" class="cls-8" width="2.74" height="2.74" transform="translate(204.83 136.18)"/>
      <rect id="Rectangle_33" data-name="Rectangle 33" class="cls-7" width="2.74" height="2.74" transform="translate(211.59 136.18)"/>
      <rect id="Rectangle_34" data-name="Rectangle 34" class="cls-7" width="2.74" height="2.74" transform="translate(171.08 142.01)"/>
      <rect id="Rectangle_35" data-name="Rectangle 35" class="cls-8" width="2.74" height="2.74" transform="translate(177.83 142.01)"/>
      <rect id="Rectangle_36" data-name="Rectangle 36" class="cls-7" width="2.74" height="2.74" transform="translate(184.58 142.01)"/>
      <rect id="Rectangle_37" data-name="Rectangle 37" class="cls-8" width="2.74" height="2.74" transform="translate(191.33 142.01)"/>
      <rect id="Rectangle_38" data-name="Rectangle 38" class="cls-8" width="2.74" height="2.74" transform="translate(198.08 142.01)"/>
      <rect id="Rectangle_39" data-name="Rectangle 39" class="cls-8" width="2.74" height="2.74" transform="translate(204.96 141.89)"/>
      <rect id="Rectangle_40" data-name="Rectangle 40" class="cls-8" width="2.74" height="2.74" transform="translate(211.59 142.01)"/>
      <rect id="Rectangle_41" data-name="Rectangle 41" class="cls-8" width="2.74" height="2.74" transform="translate(171.08 147.84)"/>
      <rect id="Rectangle_42" data-name="Rectangle 42" class="cls-8" width="2.74" height="2.74" transform="translate(177.95 147.72)"/>
      <rect id="Rectangle_43" data-name="Rectangle 43" class="cls-8" width="2.74" height="2.74" transform="translate(184.58 147.84)"/>
      <rect id="Rectangle_44" data-name="Rectangle 44" class="cls-7" width="2.74" height="2.74" transform="translate(191.33 147.84)"/>
      <rect id="Rectangle_45" data-name="Rectangle 45" class="cls-8" width="2.74" height="2.74" transform="translate(198.08 147.84)"/>
      <rect id="Rectangle_46" data-name="Rectangle 46" class="cls-8" width="2.74" height="2.74" transform="translate(204.83 147.84)"/>
      <rect id="Rectangle_47" data-name="Rectangle 47" class="cls-8" width="2.74" height="2.74" transform="translate(211.59 147.84)"/>
      <rect id="Rectangle_48" data-name="Rectangle 48" class="cls-8" width="2.74" height="2.74" transform="translate(171.08 153.67)"/>
      <rect id="Rectangle_49" data-name="Rectangle 49" class="cls-8" width="2.74" height="2.74" transform="translate(177.83 153.67)"/>
      <rect id="Rectangle_50" data-name="Rectangle 50" class="cls-8" width="2.74" height="2.74" transform="translate(184.58 153.67)"/>
      <rect id="Rectangle_51" data-name="Rectangle 51" class="cls-8" width="2.74" height="2.74" transform="translate(191.46 153.55)"/>
      <rect id="Rectangle_52" data-name="Rectangle 52" class="cls-8" width="2.74" height="2.74" transform="translate(198.08 153.67)"/>
      <rect id="Rectangle_53" data-name="Rectangle 53" class="cls-7" width="2.74" height="2.74" transform="translate(204.83 153.67)"/>
      <rect id="Rectangle_54" data-name="Rectangle 54" class="cls-8" width="2.74" height="2.74" transform="translate(211.59 153.67)"/>
      <rect id="Rectangle_55" data-name="Rectangle 55" class="cls-8" width="2.74" height="2.74" transform="translate(171.08 159.5)"/>
      <rect id="Rectangle_56" data-name="Rectangle 56" class="cls-7" width="2.74" height="2.74" transform="translate(177.83 159.5)"/>
      <rect id="Rectangle_57" data-name="Rectangle 57" class="cls-8" width="2.74" height="2.74" transform="translate(184.58 159.5)"/>
      <rect id="Rectangle_58" data-name="Rectangle 58" class="cls-8" width="2.74" height="2.74" transform="translate(191.33 159.5)"/>
      <rect id="Rectangle_59" data-name="Rectangle 59" class="cls-8" width="2.74" height="2.74" transform="translate(198.08 159.5)"/>
      <rect id="Rectangle_60" data-name="Rectangle 60" class="cls-8" width="2.74" height="2.74" transform="translate(204.96 159.38)"/>
      <rect id="Rectangle_61" data-name="Rectangle 61" class="cls-8" width="2.74" height="2.74" transform="translate(211.59 159.5)"/>
      <rect id="Rectangle_62" data-name="Rectangle 62" class="cls-1" width="32.55" height="8.61" transform="translate(331 141.99)"/>
      <path id="Path_80" data-name="Path 80" class="cls-8" d="M349.79,159.68a.46.46,0,0,1,0-.16v-2.14c0-1.48,0-3.62-.05-6.32l.1.11-32.56.06.17-.17h0v8.6l-.17-.17,23.2.08h.07l-23.31.08h-.16v-8.76h0l.16-.16,32.56.06h.1v.1c0,2.72-.05,4.88-.06,6.38v2.1A2.48,2.48,0,0,0,349.79,159.68Z"/>
      <rect id="Rectangle_63" data-name="Rectangle 63" class="cls-7" width="32.55" height="8.61" transform="translate(163.35 192.54)"/>
      <path id="Path_81" data-name="Path 81" class="cls-8" d="M377.54,116.75a1.328,1.328,0,0,1,0-.17v-2.24c0-1.56,0-3.81-.06-6.64l.11.11-34.19.06.17-.17h0v9l-.17-.18,24.36.08h.12l-24.48.08h-.17v-9.19h0c.35-.35.1-.1.18-.17l34.19.06h.11v.11c0,2.86,0,5.12-.06,6.7v2.2a.85.85,0,0,1-.11.36Z"/>
      <path id="Path_82" data-name="Path 82" class="cls-8" d="M382.18,107.7v-2.47c0-1.58,0-3.82-.07-6.58l.13.13H361.69l.18-.18h0v9.03l-.17-.17,14.7.08h4.35l-4.24.05-14.81.08h-.16v-9h0l.17-.17h20.67v.12c0,2.79-.05,5.06-.07,6.66v1.79A1.145,1.145,0,0,1,382.18,107.7Z"/>
      <path id="Path_83" data-name="Path 83" class="cls-8" d="M377.54,210.44a1.077,1.077,0,0,1,0-.16v-2.25c0-1.56,0-3.8-.06-6.63l.11.1-34.19.07c.08-.08-.18.17.17-.17h0v9l-.17-.17,24.36.08,7.2.05h-7.12l-24.48.08h-.17v-9.2h0l.18-.18,34.19.07h.11v.11c0,2.85,0,5.12-.06,6.7v2.2A.55.55,0,0,1,377.54,210.44Z"/>
      <path id="Path_84" data-name="Path 84" class="cls-8" d="M382.18,201.4a.829.829,0,0,1,0-.18v-2.29c0-1.58,0-3.82-.07-6.58l.13.13-20.55.05c-.15.15.21-.22.18-.18h0v9.03l-.17-.17,14.7.08,4.28.05h1.15a2.08,2.08,0,0,1,.42,0h-5.74l-14.81.08h-.16v-9.19h0l.17-.17h20.67v.12c0,2.79-.05,5.05-.07,6.66v1.78A2.337,2.337,0,0,1,382.18,201.4Z"/>
      <rect id="Rectangle_64" data-name="Rectangle 64" class="cls-7" width="53.61" height="53.61" transform="translate(396.56 104.14)"/>
      <rect id="Rectangle_65" data-name="Rectangle 65" class="cls-6" width="50.45" height="50.45" transform="translate(398.14 105.72)"/>
      <rect id="Rectangle_66" data-name="Rectangle 66" class="cls-8" width="14.49" height="14.49" transform="translate(416.12 123.7)"/>
      <rect id="Rectangle_67" data-name="Rectangle 67" class="cls-8" width="2.26" height="53.59" transform="translate(450.17 104.16)"/>
      <path id="Path_85" data-name="Path 85" class="cls-8" d="M625.93,295.02,601.27,264.2l-.28.41-1.87,2.73,26.73,33.76"/>
      <path id="Path_86" data-name="Path 86" class="cls-7" d="M601.82,258.07l1.77-2.36-1.93-1.66-1.87,2.37Z"/>
      <path id="Path_87" data-name="Path 87" class="cls-7" d="M604.5,259.7l-6.74-5.49-7.21,7.73c-11.81,1.23-16.94,8.32-16.94,8.32l20,17.23c7.62-7.53,4.86-19,4.86-19Z"/>
      <path id="Path_88" data-name="Path 88" class="cls-8" d="M598.51,268.45a33.647,33.647,0,0,1-4.1-3.1,33.209,33.209,0,0,1-3.86-3.41,34.936,34.936,0,0,1,4.11,3.1A33.641,33.641,0,0,1,598.51,268.45Z"/>
      <path id="Path_89" data-name="Path 89" class="cls-2" d="M386.29,361.68c-.15,0-.26-61.55-.26-137.46s.11-137.47.26-137.47.26,61.54.26,137.47S386.43,361.68,386.29,361.68Z"/>
      <path id="Path_90" data-name="Path 90" class="cls-2" d="M634.64,224.91c0,.15-110.62.26-247,.26s-247.07-.11-247.07-.26,110.6-.26,247.07-.26S634.64,224.77,634.64,224.91Z"/>
      <path id="Path_91" data-name="Path 91" class="cls-2" d="M634.08,361.86c0-1.44-.07-88.46-.18-231.37V70.76a14.87,14.87,0,0,0-.22-3.61A7.38,7.38,0,0,0,629,62a8,8,0,0,0-1.76-.4H151.75a10.76,10.76,0,0,0-4.88.8,9.33,9.33,0,0,0-3.8,3.1,9.46,9.46,0,0,0-1.68,4.5c-.1,1.59,0,3.27,0,4.89V361.86l-.24-.24,493,.24-493,.24h-.24V74.84c0-1.65,0-3.25.05-4.94a9.9,9.9,0,0,1,1.78-4.68,9.79,9.79,0,0,1,4-3.28,11.21,11.21,0,0,1,5.09-.84H627.42a8,8,0,0,1,1.86.43,7.73,7.73,0,0,1,4.9,5.43,15.111,15.111,0,0,1,.23,3.72v59.78C634.15,273.42,634.08,360.42,634.08,361.86Z"/>
      <path id="Path_92" data-name="Path 92" class="cls-4" d="M161.22,101.2a4.4,4.4,0,1,1-4.4-4.39,4.4,4.4,0,0,1,4.4,4.39Z"/>
      <path id="Path_93" data-name="Path 93" class="cls-4" d="M187.82,102c0,.12-5.48.22-12.24.22s-12.24-.1-12.24-.22,5.48-.23,12.24-.23S187.82,101.87,187.82,102Z"/>
      <path id="Path_94" data-name="Path 94" class="cls-4" d="M411.25,101.2a4.4,4.4,0,1,1-4.39-4.39,4.4,4.4,0,0,1,4.39,4.39Z"/>
      <path id="Path_95" data-name="Path 95" class="cls-4" d="M437.86,102c0,.12-5.48.22-12.24.22s-12.25-.1-12.25-.22,5.48-.23,12.25-.23S437.86,101.87,437.86,102Z"/>
      <path id="Path_96" data-name="Path 96" class="cls-4" d="M411.33,245.3a4.4,4.4,0,1,1-4.39-4.39,4.4,4.4,0,0,1,4.39,4.39Z"/>
      <path id="Path_97" data-name="Path 97" class="cls-4" d="M437.94,246.09c0,.13-5.48.23-12.24.23s-12.25-.1-12.25-.23,5.48-.22,12.25-.22S437.94,246,437.94,246.09Z"/>
      <path id="Path_98" data-name="Path 98" class="cls-4" d="M161.57,245.3a4.4,4.4,0,1,1-4.4-4.39,4.4,4.4,0,0,1,4.4,4.39Z"/>
      <path id="Path_99" data-name="Path 99" class="cls-4" d="M188.17,246.09c0,.13-5.48.23-12.24.23s-12.24-.1-12.24-.23,5.48-.22,12.24-.22S188.17,246,188.17,246.09Z"/>
      <path id="Path_100" data-name="Path 100" class="cls-3" d="M616.5,110.35h0a9.15,9.15,0,0,1-9.15-9.15h0a9.15,9.15,0,0,1,9.15-9.14h0a9.15,9.15,0,0,1,9.15,9.14h0a9.15,9.15,0,0,1-9.15,9.15Z"/>
      <path id="Path_101" data-name="Path 101" class="cls-6" d="M616.18,101.27a1.47,1.47,0,1,0-.88,0,2.56,2.56,0,0,0-2.14,2.51h5.09a2.54,2.54,0,0,0-2.07-2.51Z"/>
      <path id="Path_102" data-name="Path 102" class="cls-6" d="M619,101.71a.22.22,0,0,1-.21-.21V99.15a.22.22,0,0,1,.21-.21.21.21,0,0,1,.21.21v2.35a.21.21,0,0,1-.21.21Z"/>
      <path id="Path_103" data-name="Path 103" class="cls-6" d="M620.21,100.54h-2.35a.22.22,0,0,1-.21-.21.21.21,0,0,1,.21-.21h2.35a.21.21,0,0,1,.21.21.22.22,0,0,1-.21.21Z"/>
      <path id="Path_104" data-name="Path 104" class="cls-4" d="M141.08,339.9v22.04h493V339.9Z"/>
      <circle id="Ellipse_3" data-name="Ellipse 3" class="cls-6" cx="6.85" cy="6.85" r="6.85" transform="translate(397.71 343.64)"/>
      <rect id="Rectangle_68" data-name="Rectangle 68" class="cls-3" width="3.42" height="3.42" rx="1.28" transform="translate(402.1 348.94)"/>
      <path id="Path_105" data-name="Path 105" class="cls-3" d="M405.83,351.26V350.1l.86-.93a.19.19,0,0,1,.33.13v2.63a.19.19,0,0,1-.32.14Z"/>
      <path id="Path_106" data-name="Path 106" class="cls-6" d="M371.36,350a6.41,6.41,0,1,1-6.41-6.41,6.41,6.41,0,0,1,6.41,6.41Z"/>
      <path id="Path_107" data-name="Path 107" class="cls-3" d="M362.91,350.65a.63.63,0,1,1,.63-.63A.63.63,0,0,1,362.91,350.65Z"/>
      <path id="Path_108" data-name="Path 108" class="cls-3" d="M364.88,350.65a.63.63,0,1,1,.63-.63A.63.63,0,0,1,364.88,350.65Z"/>
      <path id="Path_109" data-name="Path 109" class="cls-3" d="M367,350.65a.63.63,0,1,1,.63-.63A.63.63,0,0,1,367,350.65Z"/>
      <circle id="Ellipse_4" data-name="Ellipse 4" class="cls-6" cx="9.74" cy="9.74" r="9.74" transform="translate(375.62 341.18)"/>
      <path id="Path_110" data-name="Path 110" class="cls-3" d="M381.54,352.61l1.74-.41a.48.48,0,0,0,.36-.47v-.35s-.07-.61.5-.65,3,0,3,0,.69,0,.67.53v.52a.41.41,0,0,0,.29.39l1.89.57a.4.4,0,0,0,.49-.24l.24-.58a.749.749,0,0,0,.06-.33,1.61,1.61,0,0,0-.32-.87c-.38-.48-2.14-1.61-5.5-1.45-3.19.15-3.89,1.5-4.08,1.82a1.4,1.4,0,0,0-.05.9l.13.34a.49.49,0,0,0,.58.28Z"/>
    </g>
    <g id="freepik--character-4--inject-10">
      <path id="Path_111" data-name="Path 111" class="cls-2" d="M549.8,276.76c-2.18-2.22-6.06-2.81-8.47-.84l-10.46,13.93a12.53,12.53,0,0,0,3.11,6.2,8,8,0,0,0,6.32,2.51,12.62,12.62,0,0,0,8.1-4.44c2-2.41,3.78-4.72,4.44-9.09A9.89,9.89,0,0,0,549.8,276.76Z"/>
      <path id="Path_112" data-name="Path 112" class="cls-4" d="M548.91,290.34c-.1,0,0-.76-.2-1.91a7.861,7.861,0,0,0-1.91-4,8,8,0,0,0-3.83-2.28c-1.13-.29-1.88-.27-1.89-.37a3.42,3.42,0,0,1,2-.06,7.35,7.35,0,0,1,4.21,2.29,7.46,7.46,0,0,1,1.89,4.4A3.39,3.39,0,0,1,548.91,290.34Z"/>
      <path id="Path_113" data-name="Path 113" class="cls-4" d="M550.51,279.34c-.06.19-2-.5-4.41-.46s-4.33.8-4.4.61a7.3,7.3,0,0,1,4.39-1.24A7.4,7.4,0,0,1,550.51,279.34Z"/>
      <path id="Path_114" data-name="Path 114" class="cls-2" d="M542.74,263.93c-1.37-6.53-7.92-13.26-14.18-15.56s-11.95-2.23-18.56-1.31a21.41,21.41,0,0,0-16.48,12.74c-2.86,6.84-2.18,13.36-1.61,20.76.43,5.62,2,12.31,4.1,14.35s1.88,1,4.54,2.15c5.3,2.34,11.12,1.63,16.91,1.42s12.62-1.4,16.71-5.49c3.45-3.47,4.5-5.91,6.2-10.41C542.28,277.55,543.85,269.19,542.74,263.93Z"/>
      <path id="Path_115" data-name="Path 115" class="cls-9" d="M532.8,271.2a18.79,18.79,0,0,0-19.19-19.06,19.34,19.34,0,0,0-18.89,18.43c-.43,8.77-.66,17.6-.29,20.77,1.11,9.53,7.19,12.65,9.61,13.53a12.718,12.718,0,0,0,2.62.36h0s.07,0,.06.06l-1,11.19c-.24,7.28,4.51,13.26,11.92,13.54s12.58-5.82,13-13.12Z"/>
      <path id="Path_116" data-name="Path 116" class="cls-2" d="M496.34,275.32c.15.17,1.4.09,3,.64s2.6,1.4,2.8,1.35,0-.28-.47-.66a6.92,6.92,0,0,0-2.2-1.22,6.14,6.14,0,0,0-2.41-.37C496.48,275.1,496.26,275.24,496.34,275.32Z"/>
      <path id="Path_117" data-name="Path 117" class="cls-2" d="M514,278c.24,0,1.24-.84,2.92-1.48s3.11-.71,3.25-.87-.21-.18-.83-.16a8.67,8.67,0,0,0-2.65.58,7.789,7.789,0,0,0-2.28,1.3C514,277.76,513.87,278,514,278Z"/>
      <path id="Path_118" data-name="Path 118" class="cls-2" d="M507,285.8a10.909,10.909,0,0,0-2.69-.59c-.43-.06-.83-.16-.89-.45a2.25,2.25,0,0,1,.34-1.23c.45-1,.91-2,1.4-3.14,1.95-4.47,3.38-8.16,3.2-8.23s-1.91,3.49-3.86,8l-1.35,3.17a2.391,2.391,0,0,0-.29,1.63,1,1,0,0,0,.67.64,3.061,3.061,0,0,0,.72.13A11.578,11.578,0,0,0,507,285.8Z"/>
      <path id="Path_119" data-name="Path 119" class="cls-10" d="M506.73,305.23s6.42.77,14.7-3.69c0,0-2.91,8.28-15,6.7Z"/>
      <path id="Path_120" data-name="Path 120" class="cls-3" d="M507.57,289.78a3.06,3.06,0,0,1,2.75-1,2.75,2.75,0,0,1,1.85,1.08,1.68,1.68,0,0,1,.05,2,2.07,2.07,0,0,1-2.21.46,6.4,6.4,0,0,1-2.08-1.34,1.68,1.68,0,0,1-.46-.5.54.54,0,0,1,0-.61"/>
      <path id="Path_121" data-name="Path 121" class="cls-2" d="M511.9,287.12c-.27,0-.35,1.76-1.95,3s-3.53.93-3.56,1.18.42.37,1.23.42a4.55,4.55,0,0,0,3-.89,3.85,3.85,0,0,0,1.53-2.48C512.21,287.57,512,287.12,511.9,287.12Z"/>
      <path id="Path_122" data-name="Path 122" class="cls-2" d="M514,268.79c.17.43,1.59.1,3.29.2s3.11.5,3.3.08c.09-.2-.18-.6-.77-1a5,5,0,0,0-2.5-.76,4.93,4.93,0,0,0-2.52.55C514.16,268.21,513.88,268.59,514,268.79Z"/>
      <path id="Path_123" data-name="Path 123" class="cls-2" d="M496.36,268c.32.44,1.65.05,3.24.09s2.9.39,3.23,0c.14-.21-.05-.64-.62-1.07a4.52,4.52,0,0,0-2.59-.8A4.45,4.45,0,0,0,497,267C496.43,267.38,496.23,267.82,496.36,268Z"/>
      <path id="Path_124" data-name="Path 124" class="cls-2" d="M509.37,248.34c-2.27,4.82.35,9.67,5.06,12.18,2,1.08,4.62,1.67,5.64,3.74.79,1.6.34,3.66,1.35,5.13s2.82,1.77,4.19,2.76c1.86,1.37,2.61,3.8,2.81,6.1a69.091,69.091,0,0,0,.43,6.91c.43,2.27,1.8,4.55,4,5.23,1.39-6.53,2.66-13.17,2.3-19.84s2.28-14.18-2.36-19-17.19-5.6-23.43-3.23"/>
      <path id="Path_125" data-name="Path 125" class="cls-4" d="M542.86,274.15a4.558,4.558,0,0,0-.36-1.62,5,5,0,0,0-3.49-2.6,22.2,22.2,0,0,0-3.14-.47,12.809,12.809,0,0,1-3.67-.81,6.15,6.15,0,0,1-3.05-2.87c-.72-1.26-1.21-2.65-2-3.86a5.82,5.82,0,0,0-3.27-2.43,22.179,22.179,0,0,0-4-.71,18.08,18.08,0,0,1-3.67-.73,11.748,11.748,0,0,1-2.92-1.48,11.43,11.43,0,0,1-3.24-3.39,7.917,7.917,0,0,1-.59-1.13c-.12-.27-.16-.41-.14-.42s.31.52.93,1.41a12.35,12.35,0,0,0,3.29,3.16,11.5,11.5,0,0,0,2.84,1.35,17.857,17.857,0,0,0,3.57.65,22.269,22.269,0,0,1,4.07.7,6.45,6.45,0,0,1,3.61,2.67c.85,1.31,1.34,2.71,2,3.91a5.65,5.65,0,0,0,2.74,2.64c2.32,1,4.77.77,6.69,1.39a5.21,5.21,0,0,1,3.61,2.92,3,3,0,0,1,.22,1.28,1.089,1.089,0,0,1-.03.44Z"/>
      <path id="Path_126" data-name="Path 126" class="cls-4" d="M542.92,271.34a3.2,3.2,0,0,1,0,1.09,26.405,26.405,0,0,1-.44,2.94,59,59,0,0,1-2.69,9.4,23.749,23.749,0,0,1-5.21,8.29,16.641,16.641,0,0,1-2.27,1.92,3.179,3.179,0,0,1-.95.54c-.07-.09,1.23-.94,2.9-2.77a25.93,25.93,0,0,0,4.94-8.21,77.9,77.9,0,0,0,2.84-9.27C542.62,272.86,542.83,271.33,542.92,271.34Z"/>
      <path id="Path_127" data-name="Path 127" class="cls-3" d="M569.48,339.9c-4.05-13.24-1.9-7.43-3.9-12.94-2.68-7.4-15.5-11.22-16.24-11.22l-1.6,6.55,2.35,17.57"/>
      <path id="Path_128" data-name="Path 128" class="cls-3" d="M531.8,309.74c-5.16,10.41-21.14,10.41-26.28,2.7l-18.59,10.81a17.22,17.22,0,0,0-7.2,7.43,31.63,31.63,0,0,0-3.07,9.22h78.06l-3.3-23.45Z"/>
    </g>
    <g id="freepik--character-3--inject-10">
      <path id="Path_129" data-name="Path 129" class="cls-6" d="M546.55,163.6c0,.17-5.39.54-12.06.83s-12.09.39-12.1.22,5.4-.53,12.07-.83S546.54,163.43,546.55,163.6Z"/>
      <path id="Path_130" data-name="Path 130" class="cls-2" d="M487.58,120.59c1.06-5.8,2.45-11.76,6-16.45s9.9-7.77,15.49-5.88l6.88,4a210.308,210.308,0,0,1-9.71,47.15,10.25,10.25,0,0,1-2.15,4.17c-2.23,2.26-5.89,14.7-9.05,14.33-3.81-.44-9.59,4.92-11.22,1.45-.79-1.68.63-22.49.75-24.33a210.789,210.789,0,0,1,3.01-24.44Z"/>
      <path id="Path_131" data-name="Path 131" class="cls-11" d="M526.33,110.28l-21.22-7c-6.87-1.24-12.09,7-13,13.86-1.05,7.69-2,17.11-1.53,22.94,1,11.71,9.76,13.83,9.76,13.83a28.551,28.551,0,0,0-.69,8.82c.55,8,5.7,10,9.91,10.33h0c6.65.71,13.59-1.4,14.35-8l5.8-50.3a4.08,4.08,0,0,0-3.38-4.48Z"/>
      <path id="Path_132" data-name="Path 132" class="cls-2" d="M496.16,126.18a1.5,1.5,0,0,0,1.32,1.61,1.43,1.43,0,0,0,1.63-1.23,1.5,1.5,0,0,0-1.32-1.61,1.43,1.43,0,0,0-1.63,1.23Z"/>
      <path id="Path_133" data-name="Path 133" class="cls-2" d="M494.36,123.14c.17.21,1.36-.54,2.95-.42s2.72,1,2.9.82-.07-.44-.55-.85a4.1,4.1,0,0,0-2.3-.9,3.9,3.9,0,0,0-2.37.58C494.47,122.71,494.28,123.05,494.36,123.14Z"/>
      <path id="Path_134" data-name="Path 134" class="cls-2" d="M511.05,127.61a1.48,1.48,0,0,0,1.32,1.6A1.42,1.42,0,0,0,514,128a1.49,1.49,0,0,0-1.32-1.61,1.43,1.43,0,0,0-1.63,1.22Z"/>
      <path id="Path_135" data-name="Path 135" class="cls-2" d="M510.33,124.76c.18.2,1.36-.55,3-.43s2.71,1,2.9.83-.07-.45-.56-.86a4,4,0,0,0-2.3-.89A3.91,3.91,0,0,0,511,124C510.44,124.33,510.25,124.66,510.33,124.76Z"/>
      <path id="Path_136" data-name="Path 136" class="cls-2" d="M503.45,135.09a10.49,10.49,0,0,0-2.56-.66c-.41-.07-.79-.18-.84-.46a2.12,2.12,0,0,1,.36-1.19l1.44-3c2-4.31,3.48-7.86,3.3-7.93s-1.93,3.34-3.93,7.64c-.49,1.06-1,2.08-1.39,3a2.4,2.4,0,0,0-.33,1.59,1.07,1.07,0,0,0,.63.65,2.91,2.91,0,0,0,.69.14,10.329,10.329,0,0,0,2.63.22Z"/>
      <path id="Path_137" data-name="Path 137" class="cls-12" d="M500.3,153.87a31.35,31.35,0,0,0,16.48-3s-5.17,7.81-16.69,5.88Z"/>
      <path id="Path_138" data-name="Path 138" class="cls-2" d="M509.56,119.84c.13.44,1.74.35,3.6.71s3.34,1,3.61.62c.13-.18-.11-.61-.69-1.07a6,6,0,0,0-2.63-1.15,6.12,6.12,0,0,0-2.86.13C509.88,119.31,509.51,119.62,509.56,119.84Z"/>
      <path id="Path_139" data-name="Path 139" class="cls-2" d="M494.27,118.38c.32.38,1.71.11,3.36.21s3,.46,3.36.11c.15-.18,0-.56-.62-.94a5.53,5.53,0,0,0-2.69-.8,5.44,5.44,0,0,0-2.73.54C494.35,117.83,494.13,118.19,494.27,118.38Z"/>
      <path id="Path_140" data-name="Path 140" class="cls-2" d="M503,106.09a18.419,18.419,0,0,0,3.3,3.92l5.84,5.75a45.641,45.641,0,0,0,4.31,3.92,47.41,47.41,0,0,0,4.33,2.84c1.54.93,2.33,3.33,3.87,4.26.35.21,1.48.08,1.85.35-.08,2.59-.12,10.85-.14,14.13-.05,5.19-1.9,19-1.9,19h4.41c3.46-.53,8.33,7,10.18,4,2-3.28-.44-17.34-.54-20-.32-7.84-1.86-15.82-2.3-22.56a27.567,27.567,0,0,0-1.32-8c-1.36-3.61-4.15-6.5-7.16-8.92A29.39,29.39,0,0,0,516,98.71a16.51,16.51,0,0,0-12.78,2,2.78,2.78,0,0,0-1.3,1.53C501.36,103.85,502.13,104.6,503,106.09Zm23.59,21.13C526.76,127.54,526.59,128.34,526.59,127.22Z"/>
      <path id="Path_141" data-name="Path 141" class="cls-11" d="M525.79,130.34a3.38,3.38,0,0,1,5.14-2.52c1.13.76,1.93,2.19,1.64,4.8-.78,6.95-7.61,4.73-7.6,4.53S525.44,133.22,525.79,130.34Z"/>
      <path id="Path_142" data-name="Path 142" class="cls-12" d="M527.39,134.76s.12.09.31.21a1.2,1.2,0,0,0,.9.12,3,3,0,0,0,1.69-2.53,4,4,0,0,0-.14-1.78,1.43,1.43,0,0,0-.81-1,.62.62,0,0,0-.75.25c-.12.19-.09.33-.13.34s-.13-.14,0-.42a.73.73,0,0,1,.32-.4.89.89,0,0,1,.69-.1,1.68,1.68,0,0,1,1.14,1.22,4,4,0,0,1,.21,2c-.21,1.4-1.07,2.63-2.11,2.81a1.33,1.33,0,0,1-1.09-.31C527.39,134.93,527.37,134.77,527.39,134.76Z"/>
      <path id="Path_143" data-name="Path 143" class="cls-8" d="M529.54,138a1.37,1.37,0,1,1-1.27-1.47A1.37,1.37,0,0,1,529.54,138Z"/>
      <path id="Path_144" data-name="Path 144" class="cls-12" d="M507.6,138.32a3.2,3.2,0,0,1-1.94,4.86,1.89,1.89,0,0,1-1.2-.07,2.67,2.67,0,0,1-1.16-1.74l-.54-1.71a.76.76,0,0,1,0-.59c.1-.19.34-.24.56-.28l4.19-.7"/>
      <path id="Path_145" data-name="Path 145" class="cls-2" d="M504.56,142.92a3.77,3.77,0,0,0,1.89-.11,3,3,0,0,0,1.74-1.21,2.27,2.27,0,0,0,.34-1.26,3.718,3.718,0,0,0-.24-1.34,3.5,3.5,0,0,0-.69-1.13l-.11-.1h-.14c-2.79.77-5,1.11-5,1.23a16.8,16.8,0,0,0,5.08-.76l-.24-.07a3.19,3.19,0,0,1,.59,1,2.72,2.72,0,0,1,0,2.19,2.76,2.76,0,0,1-1.45,1.12C505.29,142.82,504.55,142.82,504.56,142.92Z"/>
      <path id="Path_146" data-name="Path 146" class="cls-2" d="M519.57,110.32A40.79,40.79,0,0,1,530.5,122l-3.76,6.37c-6.39-.6-7.15-1.25-11.65-5.82s-13.44-13.68-13.94-20.08C507.19,104.15,514.46,106.67,519.57,110.32Z"/>
      <path id="Path_147" data-name="Path 147" class="cls-4" d="M529.67,160a4.3,4.3,0,0,1,.31-.67c.22-.42.54-1.06.93-1.88a48.547,48.547,0,0,0,2.75-7.18,46.85,46.85,0,0,0,1.83-11.22,30.366,30.366,0,0,0-.35-6.68,11.66,11.66,0,0,0-3.08-6.28,22.318,22.318,0,0,0-6-3.86,45.256,45.256,0,0,1-5.91-3.36,43.551,43.551,0,0,1-8.52-7.69,48.059,48.059,0,0,1-4.55-6.27,15.516,15.516,0,0,1-1-1.82,4.457,4.457,0,0,1-.33-.66,3.453,3.453,0,0,1,.42.61c.25.4.63,1,1.13,1.76a55.71,55.71,0,0,0,4.67,6.12,44.357,44.357,0,0,0,8.51,7.54,45.891,45.891,0,0,0,5.86,3.29,22.862,22.862,0,0,1,6.16,4,12.21,12.21,0,0,1,3.22,6.57,30.938,30.938,0,0,1,.33,6.8,46,46,0,0,1-2,11.31,43.565,43.565,0,0,1-2.93,7.17c-.42.81-.77,1.43-1,1.84a3.177,3.177,0,0,1-.45.56Z"/>
      <path id="Path_148" data-name="Path 148" class="cls-4" d="M534.62,123.67a11.591,11.591,0,0,0-2.21-4.85A16.409,16.409,0,0,0,528,115a58.991,58.991,0,0,0-6.42-3.24,43.69,43.69,0,0,1-11.06-7.14,38,38,0,0,1-2.84-2.81,6.357,6.357,0,0,1-.92-1.14,8.48,8.48,0,0,1,1.07,1c.68.65,1.66,1.59,2.95,2.66a47.38,47.38,0,0,0,11,6.94,54.775,54.775,0,0,1,6.46,3.31,15.9,15.9,0,0,1,4.4,4,10,10,0,0,1,1.74,3.62,6.006,6.006,0,0,1,.17,1.08A1,1,0,0,1,534.62,123.67Z"/>
      <path id="Path_149" data-name="Path 149" class="cls-4" d="M485.62,167.28a3.91,3.91,0,0,1,0-.75c0-.57,0-1.28.07-2.15.08-1.87.21-4.57.39-7.91.38-6.67,1-15.9,2.21-26a85.83,85.83,0,0,1,2.63-14.13,29,29,0,0,1,5-10.08,14.88,14.88,0,0,1,5.34-4.35,8.27,8.27,0,0,1,1.65-.58,2.229,2.229,0,0,1,.6-.09c0,.07-.81.23-2.18.92a15.66,15.66,0,0,0-5.14,4.44,29.109,29.109,0,0,0-4.82,10,87.519,87.519,0,0,0-2.55,14c-1.25,10.1-1.89,19.31-2.37,26-.23,3.26-.43,5.93-.57,7.89-.07.87-.13,1.58-.17,2.15a3.744,3.744,0,0,1-.09.64Z"/>
      <path id="Path_150" data-name="Path 150" class="cls-4" d="M468.4,188.52s1.25-10,6.09-15.05,25.08-11.3,25.08-11.3.83,7.15,5.68,8.88c5.14,1.83,11,1.14,14.71-3.22a23.649,23.649,0,0,0,4.71-9.66s24.17,2.23,28.11,8.86,9,32.3,9,32.3l-22.6,4.8L540.67,225l-55.54.33-1.72-18.43-16.34,2.34Z"/>
      <path id="Path_151" data-name="Path 151" class="cls-2" d="M534.73,205.59a4.268,4.268,0,0,1-.08-1c0-.64,0-1.57,0-2.71,0-2.3,0-5.47.1-9s.17-6.67.27-9c0-1.15.09-2.07.14-2.72a3.341,3.341,0,0,1,.12-1,4.125,4.125,0,0,1,.08,1v2.72c0,2.29,0,5.46-.1,9s-.17,6.67-.27,9c0,1.15-.09,2.08-.14,2.72a3.343,3.343,0,0,1-.12.99Z"/>
      <path id="Path_152" data-name="Path 152" class="cls-2" d="M477.85,187.38c.13,0,1.55,4.44,3.15,10s2.78,10.12,2.65,10.16-1.55-4.45-3.15-10a102.4,102.4,0,0,1-2.65-10.16Z"/>
      <path id="Path_153" data-name="Path 153" class="cls-2" d="M550.25,165.43c0,.1-1.07.3-2.72.92a19.71,19.71,0,0,0-10.16,8.85c-.85,1.54-1.2,2.6-1.29,2.56s0-.28.17-.76a12.443,12.443,0,0,1,.79-2,17.66,17.66,0,0,1,4.29-5.55,17.851,17.851,0,0,1,6.08-3.47,11.81,11.81,0,0,1,2.06-.51A2.431,2.431,0,0,1,550.25,165.43Z"/>
      <path id="Path_154" data-name="Path 154" class="cls-2" d="M474.13,175.49a10.761,10.761,0,0,1,1.06,3.12,10.63,10.63,0,0,1,.55,3.24A20.48,20.48,0,0,1,474.13,175.49Z"/>
      <path id="Path_155" data-name="Path 155" class="cls-6" d="M535.26,180.25c0,.16-12.82,1.89-28.67,3.86s-28.72,3.43-28.74,3.27,12.81-1.9,28.67-3.87S535.24,180.08,535.26,180.25Z"/>
      <path id="Path_156" data-name="Path 156" class="cls-6" d="M556.85,179.5a102.979,102.979,0,0,1-10.55,2.92c-5.87,1.45-10.65,2.5-10.69,2.34s4.68-1.47,10.55-2.93S556.81,179.33,556.85,179.5Z"/>
      <path id="Path_157" data-name="Path 157" class="cls-6" d="M560.51,193.48c0,.16-5.49,1.48-12.35,2.94s-12.44,2.52-12.47,2.36,5.49-1.48,12.35-2.95S560.47,193.31,560.51,193.48Z"/>
      <path id="Path_158" data-name="Path 158" class="cls-6" d="M499.41,167c0,.16-5.28,1.66-11.88,3.35s-12,2.93-12,2.77,5.27-1.66,11.87-3.35S499.37,166.87,499.41,167Z"/>
      <path id="Path_159" data-name="Path 159" class="cls-6" d="M534.36,201.39c0,.17-11.49,1-25.69,1.82S483,204.6,483,204.44s11.49-1,25.69-1.83S534.35,201.22,534.36,201.39Z"/>
      <path id="Path_160" data-name="Path 160" class="cls-6" d="M470.18,194.22a21.2,21.2,0,0,1,4.5-.77,21.729,21.729,0,0,1,4.56-.39,15.442,15.442,0,0,1-4.48,1C472.28,194.39,470.19,194.39,470.18,194.22Z"/>
      <path id="Path_161" data-name="Path 161" class="cls-6" d="M533.53,218.43a11,11,0,0,1-1.75.19l-4.78.31-15.75,1-15.74,1.23-4.77.38a9.759,9.759,0,0,1-1.76.06,10.528,10.528,0,0,1,1.73-.3c1.12-.15,2.75-.34,4.76-.56,4-.44,9.58-1,15.74-1.41s11.73-.73,15.77-.87c2-.08,3.66-.12,4.79-.13A8.661,8.661,0,0,1,533.53,218.43Z"/>
      <path id="Path_162" data-name="Path 162" class="cls-11" d="M483.41,206.85l-7.72,1L468.4,189l-11.8,4.77s6.5,22,9,30.95h24Z"/>
      <path id="Path_163" data-name="Path 163" class="cls-12" d="M484.24,221.54a43.68,43.68,0,0,1-4-4.88,34.4,34.4,0,0,1-2.57-4.44c-.64-1.32-1.07-2.42-1.37-3.19a6.566,6.566,0,0,0-.49-1.18,5.292,5.292,0,0,0,.3,1.25,29.287,29.287,0,0,0,1.23,3.28,30.4,30.4,0,0,0,2.5,4.55,40.147,40.147,0,0,0,4,5,16,16,0,0,1,2.42,3.13h.61a17.459,17.459,0,0,0-2.63-3.52Z"/>
      <path id="Path_164" data-name="Path 164" class="cls-11" d="M468.4,189s0-8.24-.68-10.56l-5.5-12.82s-1.59-.81-1.88,1.63a10.32,10.32,0,0,0,.9,5.12l.18,3.41-2.36-1.92-4.53-8.49s-3.12-6.19-3.93-5.2-.55,3,.8,5.63l3.06,6.06s.46,1.07-1.15-.49-5.09-9.11-5.81-10.05-1.71-3.71-3.27-3.09.44,4,.44,4l5,11.2-3.42-5c-.52-.76-1.73-3.14-2.68-4.38s-2-1.72-2.68-1.42a1.4,1.4,0,0,0-.86,1.71l5.33,9.26s2.67,4.15,2.67,4.47-2.33-1.38-2.33-1.38l-2.24-2.85s-2.42-4.27-3.69-4-1,1.18-1,1.18l4.5,7.78,6.52,8.39,7,6.93,4-1.3Z"/>
      <path id="Path_165" data-name="Path 165" class="cls-12" d="M455.57,187.64A17.436,17.436,0,0,0,456,185a8.24,8.24,0,0,1,2.68-5.33,4.37,4.37,0,0,1,2.71-1h.33v-.36c-.1-1.6-.05-3.12-.11-4.13a4.535,4.535,0,0,0-.22-1.63,8.764,8.764,0,0,0-.16,1.62c0,1-.2,2.43-.13,4.23l.31-.36a5,5,0,0,0-3.13,1.14,6.68,6.68,0,0,0-2.1,2.94,10.79,10.79,0,0,0-.63,2.85A7.78,7.78,0,0,0,455.57,187.64Z"/>
      <path id="Path_166" data-name="Path 166" class="cls-11" d="M536.92,204.62,535,224.75h19.18c.77-2.94,3.63-24.56,3.63-24.56Z"/>
    </g>
    <g id="freepik--character-2--inject-10">
      <path id="Path_167" data-name="Path 167" class="cls-8" d="M249.21,271.19a5.47,5.47,0,0,1-2.83-3.36,5.5,5.5,0,0,0,4.26-5.13,15.1,15.1,0,0,0-1.07-4.48,5.8,5.8,0,0,1,.07-4.5c1.27-2.26,4.08-2.92,5.71-4.94a12.09,12.09,0,0,0,2.14-5.17,10,10,0,0,1,10-7.45c2,.13,4,.87,5.95.64,2.73-.31,4.94-2.36,7.58-3.11a8.33,8.33,0,0,1,7.53,1.63c1.46,1.23,2.46,3,4,4.08s3.81,1.62,5.75,2.36,3.92,2.1,4.29,4.14c.39,2.21-1.21,4.58-.32,6.63.42,1,2.05,2.6,2.38,3.59,1.55,4.54-1.93,7.58-1.36,9.37,3,9.46-.67,13.54-3.79,13.9l-39-.83A11,11,0,0,1,245.87,272a6.41,6.41,0,0,0,3.34-.81Z"/>
      <path id="Path_168" data-name="Path 168" class="cls-11" d="M259.23,271.84c-.2-.09-8.16-2.57-8,5.6s8.29,6.37,8.3,6.13S259.23,271.84,259.23,271.84Z"/>
      <path id="Path_169" data-name="Path 169" class="cls-12" d="M257,280.51a3.1,3.1,0,0,1-.38.22,1.43,1.43,0,0,1-1.06,0c-.87-.31-1.61-1.67-1.68-3.14a4.79,4.79,0,0,1,.37-2,1.63,1.63,0,0,1,1.06-1.11.71.71,0,0,1,.84.38c.12.23.07.39.11.4s.17-.14.1-.47a.82.82,0,0,0-.33-.51,1.07,1.07,0,0,0-.79-.2,2,2,0,0,0-1.46,1.29,4.71,4.71,0,0,0-.46,2.28c.07,1.65.94,3.18,2.12,3.5a1.55,1.55,0,0,0,1.3-.23A.988.988,0,0,0,257,280.51Z"/>
      <path id="Path_170" data-name="Path 170" class="cls-11" d="M300.6,288.51c.17-5.76-.44-17.66-1.12-28.42a22.26,22.26,0,0,0-21.82-20.85h-1.15c-12.44.51-18.95,11.35-18.1,23.77l1.08,41,21.29,13.2,7.5-5.87V302.1S300.24,300.45,300.6,288.51Z"/>
      <path id="Path_171" data-name="Path 171" class="cls-12" d="M288.28,302.09a27.77,27.77,0,0,1-15.49-4.7s3.45,8.79,15.38,7.93Z"/>
      <path id="Path_172" data-name="Path 172" class="cls-2" d="M294.23,269.74a1.7,1.7,0,0,1-1.67,1.7,1.63,1.63,0,0,1-1.73-1.57,1.7,1.7,0,0,1,1.67-1.69,1.62,1.62,0,0,1,1.73,1.56Z"/>
      <path id="Path_173" data-name="Path 173" class="cls-2" d="M276.2,269.19a1.7,1.7,0,0,1-1.67,1.69,1.64,1.64,0,0,1-1.73-1.57,1.7,1.7,0,0,1,1.67-1.69,1.62,1.62,0,0,1,1.73,1.57Z"/>
      <path id="Path_174" data-name="Path 174" class="cls-2" d="M296.38,265.46c-.22.22-1.49-.76-3.33-.79s-3.19.87-3.39.64.13-.5.72-.91a4.7,4.7,0,0,1,2.72-.79,4.48,4.48,0,0,1,2.64.9C296.3,265,296.49,265.36,296.38,265.46Z"/>
      <path id="Path_175" data-name="Path 175" class="cls-2" d="M277.58,265.35c-.23.21-1.44-.85-3.27-1s-3.24.67-3.42.43.15-.49.78-.87a4.61,4.61,0,0,1,2.76-.61,4.47,4.47,0,0,1,2.58,1.07C277.53,264.84,277.69,265.26,277.58,265.35Z"/>
      <path id="Path_176" data-name="Path 176" class="cls-2" d="M285.19,279.63a12.362,12.362,0,0,1,3-.48c.47,0,.91-.13,1-.45a2.4,2.4,0,0,0-.29-1.39l-1.32-3.59c-1.84-5.12-3.16-9.32-2.95-9.39s1.86,4,3.69,9.13c.45,1.26.87,2.46,1.27,3.61a2.69,2.69,0,0,1,.21,1.84,1.15,1.15,0,0,1-.78.67,3.06,3.06,0,0,1-.8.1A12,12,0,0,1,285.19,279.63Z"/>
      <path id="Path_177" data-name="Path 177" class="cls-8" d="M277.89,258.94c-.23.48-2,.06-4.2.1s-4,.45-4.2,0c-.1-.23.25-.66,1-1.07a7,7,0,0,1,3.2-.77,6.92,6.92,0,0,1,3.2.71C277.64,258.29,278,258.72,277.89,258.94Z"/>
      <path id="Path_178" data-name="Path 178" class="cls-8" d="M296.62,259.49c-.33.41-1.58,0-3.1-.09s-2.82.23-3.1-.21c-.13-.21.08-.63.65-1a4.5,4.5,0,0,1,5,.24C296.6,258.86,296.77,259.29,296.62,259.49Z"/>
      <path id="Path_179" data-name="Path 179" class="cls-8" d="M286.89,237.7c-4.49-2-9.13-1.18-14-.64a21.94,21.94,0,0,0-10.44,3.73c-5,3.43-7.66,9.1-8.14,15.17s.44,11.39,1.76,17.33h0a8.46,8.46,0,0,0-.23,4.48c.47,1.44,2.08,2.62,3.49,2.06,1.64-.65,1.77-2.88,1.69-4.65a127,127,0,0,1,.57-17.87c.42-4.44,3.15-9.8,6.69-11.78,8-4.42,13.86,0,16.54,1.08,4.41-3.51,9.12-1.25,11.62,2C295.66,243.81,291.38,239.65,286.89,237.7Z"/>
      <path id="Path_180" data-name="Path 180" class="cls-1" d="M251.58,251.87c0,.27.51.61,1.56.78a10.52,10.52,0,0,0,4.42-.5,23.612,23.612,0,0,0,5.72-2.85c2-1.27,3.92-2.74,6-3.93a13.25,13.25,0,0,1,6-1.93,12.23,12.23,0,0,1,5.09.87c2.87,1.11,4.33,2.69,4.84,2.32.12-.08.16-.27.11-.56a3.661,3.661,0,0,0-.45-1.15,9.6,9.6,0,0,0-3.1-3.22,12.69,12.69,0,0,0-6.47-2.12,13,13,0,0,0-4.11.48,18.14,18.14,0,0,0-3.93,1.67,50.283,50.283,0,0,0-6.18,4.43,39.213,39.213,0,0,1-4.64,3.27A24.412,24.412,0,0,1,253,251C252.13,251.35,251.59,251.57,251.58,251.87Z"/>
      <path id="Path_181" data-name="Path 181" class="cls-6" d="M251.26,259.05a4.24,4.24,0,0,0,1.68.36,10.669,10.669,0,0,0,4.11-.5,10.54,10.54,0,0,0,3.61-2,4.491,4.491,0,0,0,1.15-1.27,15.918,15.918,0,0,0-1.33,1,12.74,12.74,0,0,1-3.56,1.85,12.541,12.541,0,0,1-4,.59C251.92,259.1,251.28,259,251.26,259.05Z"/>
      <path id="Path_182" data-name="Path 182" class="cls-6" d="M247.39,267.87a1.88,1.88,0,0,0,.67-.15,18.132,18.132,0,0,0,1.76-.64,27.361,27.361,0,0,0,5.41-3,27.881,27.881,0,0,0,4.62-4.11c.53-.6.93-1.09,1.19-1.45a2.241,2.241,0,0,0,.37-.59c-.06,0-.68.71-1.78,1.83a33.387,33.387,0,0,1-4.64,4,34.5,34.5,0,0,1-5.29,3.06C248.28,267.47,247.36,267.81,247.39,267.87Z"/>
      <path id="Path_183" data-name="Path 183" class="cls-6" d="M278.1,235.92c0,.06.74.32,1.91.87a11.94,11.94,0,0,1,4,2.91,7.15,7.15,0,0,1,1.7,4.54,9,9,0,0,1-.34,2,2.113,2.113,0,0,0,.29-.5,4.739,4.739,0,0,0,.35-1.53,7,7,0,0,0-1.68-4.82,10.89,10.89,0,0,0-4.22-2.91A6.74,6.74,0,0,0,278.1,235.92Z"/>
      <path id="Path_184" data-name="Path 184" class="cls-6" d="M282.87,233.12c0,.06.67.48,1.57,1.42a9.5,9.5,0,0,1,2.38,4.4,9.4,9.4,0,0,1-.29,5c-.41,1.24-.88,1.92-.82,2s.16-.14.37-.45a7.583,7.583,0,0,0,.73-1.4,8.85,8.85,0,0,0-2.16-9.7,7.919,7.919,0,0,0-1.26-1,1.57,1.57,0,0,0-.52-.27Z"/>
      <path id="Path_185" data-name="Path 185" class="cls-6" d="M256.05,275.19a4.84,4.84,0,0,0,2.92-1,4.75,4.75,0,0,0,2-2.29,23.921,23.921,0,0,1-2.28,1.94A26.425,26.425,0,0,1,256.05,275.19Z"/>
      <path id="Path_186" data-name="Path 186" class="cls-6" d="M255.52,276.87a5.06,5.06,0,0,0,3.28-.7,5,5,0,0,0,2.42-2.3,18.882,18.882,0,0,1-2.62,1.93A18.088,18.088,0,0,1,255.52,276.87Z"/>
      <path id="Path_187" data-name="Path 187" class="cls-6" d="M297.45,250.59a2.21,2.21,0,0,0,1.16-.4,5.86,5.86,0,0,0,2.9-5,2.26,2.26,0,0,0-.23-1.22c-.06,0,0,.48-.07,1.2a6.64,6.64,0,0,1-.85,2.68,6.85,6.85,0,0,1-1.9,2.08C297.86,250.35,297.42,250.53,297.45,250.59Z"/>
      <path id="Path_188" data-name="Path 188" class="cls-6" d="M296.14,248a11.1,11.1,0,0,0,3.18-5.62c-.12,0-.66,1.31-1.55,2.85A26.293,26.293,0,0,0,296.14,248Z"/>
      <path id="Path_189" data-name="Path 189" class="cls-12" d="M267.44,266c-.05.08.5.51,1.29.81a2.71,2.71,0,0,0,1.49.28,5.84,5.84,0,0,0-1.37-.58,6,6,0,0,0-1.41-.51Z"/>
      <path id="Path_190" data-name="Path 190" class="cls-12" d="M266.15,267.83a5.1,5.1,0,0,0,1.79.05,5.2,5.2,0,0,0,1.76-.28,9.671,9.671,0,0,0-3.55.23Z"/>
      <path id="Path_191" data-name="Path 191" class="cls-12" d="M297.22,269.08c0,.09.43.16,1,.17s1-.06,1-.15-.44-.17-1-.18S297.22,269,297.22,269.08Z"/>
      <path id="Path_192" data-name="Path 192" class="cls-12" d="M297.68,268.15c0,.08.42-.06.83-.31s.72-.52.67-.59-.42.06-.84.31S297.63,268.08,297.68,268.15Z"/>
      <path id="Path_193" data-name="Path 193" class="cls-12" d="M278.82,251.89c0,.05.58.18,1.47.54s2.08.95,3.44,1.54a9.37,9.37,0,0,0,3.71.87,4.52,4.52,0,0,0,1.15-.14c.27-.07.4-.13.4-.15a9.511,9.511,0,0,1-1.55.06,10.521,10.521,0,0,1-3.58-.94c-1.35-.58-2.56-1.17-3.49-1.46a4.52,4.52,0,0,0-1.55-.32Z"/>
      <path id="Path_194" data-name="Path 194" class="cls-12" d="M281.24,251.62a10.75,10.75,0,0,0,7.46,1.09,37.409,37.409,0,0,1-3.78-.19C282.85,252.23,281.28,251.52,281.24,251.62Z"/>
      <path id="Path_195" data-name="Path 195" class="cls-12" d="M277.47,281.26c.08.05.36-.66,1.14-1a3.4,3.4,0,0,1,1.49-.08.788.788,0,0,0-.42-.27,1.75,1.75,0,0,0-1.19,0,1.82,1.82,0,0,0-.91.79C277.44,281.06,277.43,281.25,277.47,281.26Z"/>
      <path id="Path_196" data-name="Path 196" class="cls-12" d="M275.92,280.89a3.644,3.644,0,0,1,1.05-1.24,3.83,3.83,0,0,1,1.56-.45.975.975,0,0,0-.51-.16,2,2,0,0,0-1.23.34,2.06,2.06,0,0,0-.82,1C275.86,280.68,275.88,280.89,275.92,280.89Z"/>
      <path id="Path_197" data-name="Path 197" class="cls-12" d="M273.25,311.16a.694.694,0,0,0,.34-.13,1.66,1.66,0,0,0,.59-.82,6.91,6.91,0,0,0,.29-1.44,1.9,1.9,0,0,1,.74-1.39,16.455,16.455,0,0,0,1.61-.74,2.38,2.38,0,0,0,.85-1.24,1.69,1.69,0,0,0-.07-1.35,4,4,0,0,1-.15,1.28,2.35,2.35,0,0,1-.81,1.07c-.4.31-1,.35-1.61.7a1.65,1.65,0,0,0-.64.77,3.509,3.509,0,0,0-.22.86,7.151,7.151,0,0,1-.21,1.41A1.83,1.83,0,0,1,273.25,311.16Z"/>
      <path id="Path_198" data-name="Path 198" class="cls-12" d="M270.48,310.28a2,2,0,0,0,1.17-.76,3.089,3.089,0,0,0,.69-1.38,2.86,2.86,0,0,0,.06-.93c0-.32-.1-.63-.12-.93a1.75,1.75,0,0,1,.79-1.42,7.827,7.827,0,0,0,.58-.57,1.7,1.7,0,0,0,.35-.66,1.14,1.14,0,0,0-.11-1c-.18-.2-.34-.21-.34-.2a1.3,1.3,0,0,1,.23.27,1.07,1.07,0,0,1,0,.9,1.58,1.58,0,0,1-.33.55,7.788,7.788,0,0,1-.58.52,3.42,3.42,0,0,0-.64.67,1.63,1.63,0,0,0-.27,1c0,.35.09.66.12,1a2.88,2.88,0,0,1,0,.83,3,3,0,0,1-.58,1.29,5.35,5.35,0,0,1-1.02.82Z"/>
      <path id="Path_199" data-name="Path 199" class="cls-12" d="M286.7,284.11c-2.26,7.36-8.85.78-4.82-2.15,1.76.28,3.39,1.31,5.09,1.88"/>
      <path id="Path_200" data-name="Path 200" class="cls-2" d="M285.05,287.51c-2.4.55-5.63-2.24-3.57-5.11,1-.29,3,1.15,4,1.32,2.87,1.09,3,.85.2-.48-1.25-.42-2.85-1.73-4.33-1.66C278.09,284,281.86,289.53,285.05,287.51Z"/>
      <path id="Path_201" data-name="Path 201" class="cls-11" d="M187.65,339.9l-.18-4a2.27,2.27,0,0,0-.18-.81l-2.13-5.1s8.65-9.85,9.11-11.07.18-2.5-2-1.6-9.11,7.32-9.11,7.32l-2.68-4.75s6.26-6.68,6.88-7.4.26-4.46-2.06-3.21-8.21,6.61-8.21,6.61l-1.61-1.61,4.64-7.14s1.61-2.5-.35-3.22-2.86.72-4.29,2.32a53.085,53.085,0,0,0-3.63,5.09l-1.38-.11-2.13-.51.16-2.48s2.87-4.14,3.35-5.06c.39-.75,1.61-2.53,0-3.24s-2.66-.86-3.51.6a9,9,0,0,1-1.76,1.89,12.11,12.11,0,0,0-2.86-2c-1.27-.39-2.77,1.07-1.29,5.14.24.67,1.7,8.17,1.7,8.17l.36,3.93,1.71,3.51,7.67,13.43v5.28"/>
      <path id="Path_202" data-name="Path 202" class="cls-12" d="M174,323.61a13.773,13.773,0,0,0,.52-2l.61-2.2c.11-.42.23-.86.33-1.33a1.493,1.493,0,0,0,.05-.22.56.56,0,0,0,0-.18v-.06a.39.39,0,0,0-.34-.18.33.33,0,0,0-.25.1h0l-.05.07v.2a.58.58,0,0,0,0,.24h0a.41.41,0,0,0,.25.28.38.38,0,0,0,.3,0h0l.09-.08v-.12l.09-.16a4.418,4.418,0,0,1,.37-.55,33.123,33.123,0,0,1,3.65-3.44c1-.84,1.58-1.41,1.51-1.5a6.67,6.67,0,0,0-1.84,1.08,20.61,20.61,0,0,0-3.91,3.39,5.155,5.155,0,0,0-.44.67l-.09.17h0a1.329,1.329,0,0,0,.2.13c.08,0,.08.11.13.09.48.07.3.05.34,0h0l-.2-.1c-.07,0-.12-.09-.14-.07s-.09,0-.26,0h-.08v.08c-.09.44-.19.87-.28,1.31-.19.84-.36,1.61-.46,2.26C173.78,322.78,173.88,323.62,174,323.61Z"/>
      <path id="Path_203" data-name="Path 203" class="cls-12" d="M169.77,318.9c.22,0-.29-2.15.62-4.52s2.36-3.93,2.16-4.09-1.89,1.25-2.87,3.83a7.26,7.26,0,0,0-.4,3.43C169.41,318.44,169.69,318.92,169.77,318.9Z"/>
      <path id="Path_204" data-name="Path 204" class="cls-12" d="M182.27,333.29c.16.14,1.76-1.45,3.58-3.55s3.18-3.92,3-4.05-1.76,1.45-3.58,3.55S182.12,333.15,182.27,333.29Z"/>
      <path id="Path_205" data-name="Path 205" class="cls-12" d="M179.11,328.8c.16.15,1.77-1.19,3.6-3s3.2-3.36,3.06-3.52-1.74,1.18-3.59,3S179,328.66,179.11,328.8Z"/>
      <path id="Path_206" data-name="Path 206" class="cls-12" d="M187.91,336.17a6.39,6.39,0,0,0-.73-2.66c-.39-.74-.8-1.33-1.1-1.85a18.681,18.681,0,0,1-.78-1.77c-.11,0-.23.84.31,2s1.51,2.53,1.54,4.31a5.38,5.38,0,0,1-.9,3.7h.81C187.9,339,188,338.16,187.91,336.17Z"/>
      <path id="Path_207" data-name="Path 207" class="cls-12" d="M168.54,312.45c.16,0,.3-1.62.35-3.9l-.06.2a18.347,18.347,0,0,0,1.1-1.69c.82-1.42,1.43-2.75,1.92-3.68s.79-1.53.7-1.59-.55.42-1.15,1.31-1.32,2.2-2.12,3.59c-.35.59-.7,1.15-1,1.66l-.07.1v.1C168.24,310.83,168.38,312.45,168.54,312.45Z"/>
      <path id="Path_208" data-name="Path 208" class="cls-12" d="M164.74,318.12c.07,0-.12-.58-.18-1.58a39.069,39.069,0,0,1-.06-4.08v-.08c-.22-1.22-.46-2.51-.7-3.86a.576.576,0,0,0-.05-.29h0c-.06-1.11.78-2.11,1.42-3l1.72-2.43a10.519,10.519,0,0,0,1.43-2.34c-.09-.07-.78.71-1.85,2l-1.85,2.33a15.1,15.1,0,0,0-1.05,1.47,3.56,3.56,0,0,0-.57,2v.05a.614.614,0,0,0,.05.29c.27,1.35.52,2.63.76,3.85v-.07a23.259,23.259,0,0,0,.34,4.16C164.33,317.62,164.67,318.16,164.74,318.12Z"/>
      <path id="Path_209" data-name="Path 209" class="cls-12" d="M179.88,325.86c.21-.06-.07-1.42.12-3.07s.73-2.92.54-3-1.09,1.11-1.28,2.94S179.7,325.94,179.88,325.86Z"/>
      <path id="Path_210" data-name="Path 210" class="cls-12" d="M174.16,320.6c.22,0,.25-1.48.73-3.19s1.19-3,1-3.12-1.23,1.06-1.73,2.92S174,320.63,174.16,320.6Z"/>
      <path id="Path_211" data-name="Path 211" class="cls-2" d="M205.35,339.9s12.58-19,15.13-20.38,28.28-10.4,28.28-10.4l11-7.56L258,317.16l3.49,22.74"/>
      <path id="Path_212" data-name="Path 212" class="cls-1" d="M288.28,303.69l-10.37,10.46-18.46-11.61-5.28,10.39,4.28,26.97,39.75-.23.18-18.02Z"/>
      <path id="Path_213" data-name="Path 213" class="cls-3" d="M287,339.9c-1-3.77-5.3-14-5.3-14l2.57-4.11c-.18-5.65-5.14-6.16-7.71-5.82s-3.16,5.82-3.16,5.82l3.33,4.8-4,13.27Z"/>
      <path id="Path_214" data-name="Path 214" class="cls-2" d="M334.74,339.9,330.22,327a8,8,0,0,0-5-5.3l-25.66-9.2-11.53-9.22,6.2,14.21v22.62Z"/>
      <path id="Path_215" data-name="Path 215" class="cls-4" d="M228.58,339.67a18.92,18.92,0,0,1-.51-2.55,41.167,41.167,0,0,0-1.64-6,38.6,38.6,0,0,0-2.59-5.67,20.7,20.7,0,0,1-1.26-2.28,9.389,9.389,0,0,1,1.57,2.09,29.221,29.221,0,0,1,2.77,5.68,30.08,30.08,0,0,1,1.51,6.14,10.121,10.121,0,0,1,.15,2.59Z"/>
      <path id="Path_216" data-name="Path 216" class="cls-4" d="M320.5,338.69a10.609,10.609,0,0,1,.41-2.35,54.061,54.061,0,0,1,1.6-5.52,31.27,31.27,0,0,1,2.34-5.26,7.8,7.8,0,0,1,1.38-1.95,20.156,20.156,0,0,1-1.06,2.13A46,46,0,0,0,323,331C321.55,335.2,320.67,338.73,320.5,338.69Z"/>
      <path id="Path_217" data-name="Path 217" class="cls-4" d="M304.82,339.44a9.089,9.089,0,0,1,.44-1.61c.36-1.11.83-2.56,1.38-4.29v.19l-1.88-2.34c-.34-.42-.69-.85-1.06-1.29l-.56-.66-.29-.32-.25-.25-.23-.23.13-.15a10,10,0,0,1,3.93-2.59,15.089,15.089,0,0,1,1.51-.53l-.15.38c-2.21-3.78-4.5-7-6-9.36-.75-1.19-1.33-2.17-1.71-2.85a5.239,5.239,0,0,1-.53-1.09,5.689,5.689,0,0,1,.7,1c.48.73,1.1,1.65,1.84,2.76,1.56,2.33,3.9,5.48,6.14,9.29l.16.29-.31.09a15,15,0,0,0-1.46.51,9.62,9.62,0,0,0-3.73,2.42l-.1-.39a2,2,0,0,1,.41.37l.3.34.57.67,1,1.31,1.84,2.39.07.08v.11c-.63,1.7-1.15,3.12-1.55,4.22a9.072,9.072,0,0,1-.61,1.53Z"/>
      <path id="Path_218" data-name="Path 218" class="cls-4" d="M245.41,339.9a7.551,7.551,0,0,1-.37-1.17c-.25-.85-.56-1.94-.93-3.25a38,38,0,0,1-1.11-5,3.89,3.89,0,0,1,.06-1.55,5.88,5.88,0,0,1,.64-1.49,4,4,0,0,1,2.76-2V326l-2.56-.29-1.9-.21a.26.26,0,0,1-.22-.29.14.14,0,0,1,0-.07c1.89-4.3,3.59-8.1,4.84-10.82l1.49-3.2a6.709,6.709,0,0,1,.61-1.14,6.4,6.4,0,0,1-.43,1.21c-.35.86-.81,1.95-1.35,3.27-1.16,2.76-2.81,6.59-4.69,10.88l-.21-.36,1.89.21,2.55.29a.26.26,0,0,1,.23.29.27.27,0,0,1-.22.23,3.54,3.54,0,0,0-2.41,1.72,5.58,5.58,0,0,0-.6,1.35,3.38,3.38,0,0,0-.07,1.38,44.008,44.008,0,0,0,1,4.95A30.31,30.31,0,0,1,245.41,339.9Z"/>
    </g>
    <g id="freepik--character-1--inject-10">
      <path id="Path_219" data-name="Path 219" class="cls-13" d="M256.48,132.9l-.56,44.56c-.09,7.58,1.32,18.74,13.31,18.34h0c10.38-1.13,13.13-11,13.21-18,0-3.35.08-6.15.1-6.49,0,0,11.36-.93,12.32-12.15.46-5.42.51-16.66.43-26.84a21,21,0,0,0-19.45-20.74l-1.08-.08C263,111.3,256.32,121.16,256.48,132.9Z"/>
      <path id="Path_220" data-name="Path 220" class="cls-14" d="M282.54,171.28a27.26,27.26,0,0,1-14.3-5.39s3,8.46,14.24,8.27Z"/>
      <path id="Path_221" data-name="Path 221" class="cls-2" d="M276.11,136.89c-.22.23-1.52-.82-3.4-.87s-3.28.88-3.48.63c-.1-.1.14-.52.75-1a4.68,4.68,0,0,1,2.79-.79,4.53,4.53,0,0,1,2.7,1C276,136.36,276.22,136.79,276.11,136.89Z"/>
      <path id="Path_222" data-name="Path 222" class="cls-2" d="M274.19,140.75a1.52,1.52,0,0,1-1.57,1.43,1.45,1.45,0,0,1-1.46-1.48,1.52,1.52,0,0,1,1.57-1.43,1.45,1.45,0,0,1,1.46,1.48Z"/>
      <path id="Path_223" data-name="Path 223" class="cls-2" d="M280.82,150a12.3,12.3,0,0,1,2.84-.3c.44,0,.87-.07,1-.36a2.21,2.21,0,0,0-.2-1.33c-.33-1.1-.69-2.25-1.05-3.45-1.47-4.91-2.49-8.93-2.29-9s1.54,3.88,3,8.79l1,3.46a2.58,2.58,0,0,1,.1,1.75,1.15,1.15,0,0,1-.77.59,3.49,3.49,0,0,1-.76,0A11.28,11.28,0,0,1,280.82,150Z"/>
      <path id="Path_224" data-name="Path 224" class="cls-2" d="M275.31,129.82c-.18.42-1.69.11-3.49.2s-3.28.49-3.49.09c-.09-.19.19-.58.8-1a5.67,5.67,0,0,1,2.64-.74,5.56,5.56,0,0,1,2.68.52C275.08,129.26,275.39,129.62,275.31,129.82Z"/>
      <path id="Path_225" data-name="Path 225" class="cls-2" d="M293.16,133.31c-.2.34-1.66,0-3.44-.1s-3.25.18-3.44-.18c-.08-.17.21-.47.83-.74a6.2,6.2,0,0,1,2.63-.44,6.42,6.42,0,0,1,2.61.65C293,132.82,293.25,133.14,293.16,133.31Z"/>
      <path id="Path_226" data-name="Path 226" class="cls-13" d="M256.79,141.28c-.19-.1-7.55-2.85-7.87,4.85s7.48,6.42,7.5,6.2S256.79,141.28,256.79,141.28Z"/>
      <path id="Path_227" data-name="Path 227" class="cls-14" d="M254.19,149.32a2.3,2.3,0,0,1-.37.18,1.28,1.28,0,0,1-1,0,3.29,3.29,0,0,1-1.41-3,4.3,4.3,0,0,1,.45-1.91,1.58,1.58,0,0,1,1-1,.7.7,0,0,1,.78.4c.09.22,0,.37.08.39s.17-.12.12-.44a.87.87,0,0,0-.29-.5,1,1,0,0,0-.73-.22,1.89,1.89,0,0,0-1.45,1.13,4.58,4.58,0,0,0-.55,2.13c0,1.55.72,3,1.82,3.4a1.45,1.45,0,0,0,1.23-.15C254.17,149.51,254.22,149.34,254.19,149.32Z"/>
      <path id="Path_228" data-name="Path 228" class="cls-2" d="M279,155.29c.09-.19-1.42-.64-2.48-2.06a8,8,0,0,1-1.06-2c-.23-.56-.4-.91-.48-.88s-.06.4.06,1a5.69,5.69,0,0,0,1,2.25,4.63,4.63,0,0,0,2,1.51C278.59,155.34,279,155.36,279,155.29Z"/>
      <path id="Path_229" data-name="Path 229" class="cls-2" d="M310.19,122.22a1.82,1.82,0,0,0-.85-1.06,5.63,5.63,0,0,0-2.87-.47,16.13,16.13,0,0,1-8.44-2.56,37.21,37.21,0,0,0-3.93-4.76c-3.4-3.5-6.19-5.89-9.09-7.06-3.74-1.5-10-2.11-13.91-1.09s-7.41,4.19-8,8.19c-2.19-1.85-5.47-1.83-8.14-.76h-.07c-3,1.06-4.65,4.19-5.53,7.22s-1.25,6.27-2.85,9c-.34.57-.74,1.25-.44,1.84a1.24,1.24,0,0,0,1.31.57,3.65,3.65,0,0,0,1.38-.62l-1,2.37a6.94,6.94,0,0,0,3.23-.21,68.617,68.617,0,0,0,2.11,8,4.58,4.58,0,0,1,3.14.78c1,.93,1.51,2.69,3.23,2,.88-.34,1.69-2.18,2-3.08a43.9,43.9,0,0,0,1.9-18.53,14.19,14.19,0,0,1,4.34-3.14l-.13.12c3.13-1.09,6.68-2.16,9.66-.69,2.3,1.14,3.66,3.54,5.39,5.45A17.13,17.13,0,0,0,295,129.47c.16,3.16.1,7.63.27,10.79l2.65-5.06h0c.21-.37.39-.75.57-1.12l.06-.12h0a18.75,18.75,0,0,1,.89-1.8h0a2,2,0,0,0,2.88-2.64,4.8,4.8,0,0,0-.95-1,3.09,3.09,0,0,0,3,.77,2.43,2.43,0,0,0,1.73-2.42,2.08,2.08,0,0,0-1.24-1.67,7.05,7.05,0,0,0,4-.88A1.844,1.844,0,0,0,310.19,122.22Z"/>
      <path id="Path_230" data-name="Path 230" class="cls-4" d="M266.68,114.7a9.679,9.679,0,0,0-1.12,1,8.11,8.11,0,0,0-1.73,3.72,14.747,14.747,0,0,0-.28,2.86c0,1,.08,2.14.16,3.3a31.742,31.742,0,0,1,.08,3.68,14.872,14.872,0,0,1-.25,2,4.11,4.11,0,0,1-.8,1.88,1.66,1.66,0,0,1-1.58.53,2.53,2.53,0,0,1-1.42-.8,5.82,5.82,0,0,1-1.09-2.86h.24a9.41,9.41,0,0,1-1.37,2.35,3.32,3.32,0,0,1-2.18,1.19,2.18,2.18,0,0,1-1.16-.2,1.83,1.83,0,0,1-.78-.78,1.86,1.86,0,0,1-.24-1,1.4,1.4,0,0,1,.36-.87l.12.1a7.2,7.2,0,0,1-2.41,1.81,5.361,5.361,0,0,1-.75.29l-.27.07a1,1,0,0,1,.26-.11c.16-.07.41-.17.72-.33a7.39,7.39,0,0,0,2.33-1.83l.12.1a1.45,1.45,0,0,0-.08,1.67,1.75,1.75,0,0,0,.71.69,2,2,0,0,0,1,.17,3.15,3.15,0,0,0,2-1.13,9.321,9.321,0,0,0,1.31-2.3l.16-.36.08.39a5.6,5.6,0,0,0,1,2.72,2.21,2.21,0,0,0,1.27.72,1.41,1.41,0,0,0,1.35-.45,3.839,3.839,0,0,0,.73-1.76,12.374,12.374,0,0,0,.25-1.9,29.266,29.266,0,0,0-.07-3.65c-.07-1.17-.14-2.28-.13-3.33a14.178,14.178,0,0,1,.32-2.88,8.07,8.07,0,0,1,1.83-3.76A4.64,4.64,0,0,1,266.68,114.7Z"/>
      <path id="Path_231" data-name="Path 231" class="cls-4" d="M301.4,125.62l-.09.08-.28.2a3.13,3.13,0,0,1-.48.3,4.26,4.26,0,0,1-.68.36,9.9,9.9,0,0,1-4.8.87,12.72,12.72,0,0,1-6.77-2.5,22,22,0,0,1-5.82-6.71c-.82-1.36-1.49-2.75-2.22-4a14.48,14.48,0,0,0-2.51-3.41,7.6,7.6,0,0,0-3.23-2,5.29,5.29,0,0,0-1.71-.19,6.08,6.08,0,0,0-1.56.3,6.37,6.37,0,0,0-3.6,3,7.758,7.758,0,0,0-.58,1.68v-.12a.852.852,0,0,1,.05-.34,5.071,5.071,0,0,1,.43-1.27,6.22,6.22,0,0,1,1.25-1.7,6.72,6.72,0,0,1,2.38-1.48,6.389,6.389,0,0,1,1.61-.33,5.75,5.75,0,0,1,1.78.19,7.91,7.91,0,0,1,3.34,2,15,15,0,0,1,2.56,3.46c.75,1.3,1.41,2.69,2.22,4a22.081,22.081,0,0,0,5.74,6.64,12.6,12.6,0,0,0,6.64,2.51,10,10,0,0,0,4.75-.77,16.136,16.136,0,0,0,1.58-.77Z"/>
      <path id="Path_232" data-name="Path 232" class="cls-4" d="M302.42,120.69a2,2,0,0,1-.4.28,8.56,8.56,0,0,1-1.19.6,11.641,11.641,0,0,1-1.89.62,12.651,12.651,0,0,1-2.41.32,12.51,12.51,0,0,1-2.43-.16,11.781,11.781,0,0,1-1.92-.5,7.4,7.4,0,0,1-1.23-.53,2.161,2.161,0,0,1-.42-.25s.64.27,1.7.6a13.629,13.629,0,0,0,1.91.44,14.869,14.869,0,0,0,2.38.14,14.089,14.089,0,0,0,2.37-.29,15.209,15.209,0,0,0,1.87-.56C301.8,121,302.4,120.64,302.42,120.69Z"/>
      <path id="Path_233" data-name="Path 233" class="cls-2" d="M293.25,137.6c-.23.22-1.52-.82-3.4-.87s-3.29.87-3.48.63.13-.52.74-1a4.73,4.73,0,0,1,2.8-.79,4.55,4.55,0,0,1,2.7,1C293.17,137.07,293.36,137.5,293.25,137.6Z"/>
      <path id="Path_234" data-name="Path 234" class="cls-2" d="M290.6,141.16a1.53,1.53,0,0,1-1.58,1.43,1.46,1.46,0,0,1-1.46-1.48,1.51,1.51,0,0,1,1.57-1.43,1.46,1.46,0,0,1,1.47,1.48Z"/>
      <path id="Path_235" data-name="Path 235" class="cls-3" d="M256.16,173.78l-13.44,5.61a46.35,46.35,0,0,0-20.64,16.68c-1.2,1.78-5,15.48-5.29,16.6-1.11,4.5-2.93,12.24-2.93,12.24H320.63s-3.15-30.51-10.76-36.4c-4.94-3.83-27.54-14.27-27.54-14.27a10,10,0,0,1-9.15,5.76A24.53,24.53,0,0,1,256.16,173.78Z"/>
    </g>
  </g>
</svg>
