<svg xmlns="http://www.w3.org/2000/svg" version="1.1" xmlns:xlink="http://www.w3.org/1999/xlink" xmlns:svgjs="http://svgjs.com/svgjs" width="1440" height="560" preserveAspectRatio="none" viewBox="0 0 1440 560"><g mask="url(&quot;#SvgjsMask1027&quot;)" fill="none"><rect width="1440" height="560" x="0" y="0" fill="rgba(249, 250, 250, 1)"></rect><path d="M0,333.63C66.813,331.672,137.223,337.15,193.84,301.62C250.691,265.944,272.495,197.663,307.712,140.527C348.439,74.451,412.586,17.602,416.676,-59.909C421.017,-142.193,382.435,-222.396,330.223,-286.14C277.188,-350.889,202.892,-393.933,122.903,-418.569C42.19,-443.428,-46.833,-457.878,-125.205,-426.409C-201.148,-395.915,-234.486,-311.327,-291.172,-252.302C-351.74,-189.235,-450.873,-152.912,-469.84,-67.553C-488.872,18.099,-437.022,104.785,-386.449,176.485C-341.312,240.477,-273.82,283.699,-201.279,313.197C-137.517,339.125,-68.802,335.646,0,333.63" fill="#c3cdcd"></path><path d="M1440 1059.72C1535.592 1056.3020000000001 1629.573 1031.892 1709.342 979.105 1788.451 926.755 1859.841 854.998 1886.8029999999999 764.048 1912.483 677.422 1867.243 589.792 1851.107 500.892 1835.663 415.803 1841.32 325.624 1794.08 253.188 1743.375 175.43900000000002 1668.488 111.30000000000001 1579.598 84.57100000000003 1490.457 57.76600000000002 1391.477 67.82400000000001 1306.897 106.69299999999998 1227.834 143.027 1187.202 225.81799999999998 1129.853 291.256 1072.118 357.134 987.485 406.65700000000004 968.9780000000001 492.277 950.155 579.359 1000.283 663.117 1031.43 746.588 1064.995 836.5409999999999 1081.786 940.412 1157.99 998.816 1235.899 1058.526 1341.904 1063.2269999999999 1440 1059.72" fill="#ffffff"></path></g><defs><mask id="SvgjsMask1027"><rect width="1440" height="560" fill="#ffffff"></rect></mask></defs></svg>